<svg width="43" height="43" viewBox="0 0 43 43" fill="none" xmlns="http://www.w3.org/2000/svg">
<rect width="43" height="43" rx="10" fill="url(#paint0_linear_491_1782)"/>
<path d="M29.4218 16.443L29.2045 16.2351L31.5571 13.8919C31.6776 13.7451 31.7392 13.5586 31.7299 13.3689C31.7206 13.1791 31.641 12.9996 31.5067 12.8653C31.3723 12.7309 31.1928 12.6514 31.0031 12.642C30.8133 12.6327 30.6269 12.6943 30.48 12.8148L28.0329 15.2714C26.2536 14.0195 24.1303 13.3493 21.9547 13.3526C19.7791 13.356 17.6579 14.0329 15.8825 15.2903L13.4165 12.8148C13.2696 12.6943 13.0832 12.6327 12.8934 12.642C12.7037 12.6514 12.5241 12.7309 12.3898 12.8653C12.2555 12.9996 12.1759 13.1791 12.1666 13.3689C12.1573 13.5586 12.2189 13.7451 12.3394 13.8919L14.7109 16.254C13.6534 17.2561 12.8113 18.4634 12.2362 19.802C11.6611 21.1406 11.3651 22.5824 11.3662 24.0394V26.203C11.3662 26.6039 11.5255 26.9884 11.809 27.2719C12.0925 27.5555 12.477 27.7147 12.8779 27.7147H31.0186C31.4195 27.7147 31.804 27.5555 32.0875 27.2719C32.371 26.9884 32.5303 26.6039 32.5303 26.203V23.9354C32.5345 22.5429 32.2619 21.1634 31.7283 19.8771C31.1946 18.5909 30.4106 17.4235 29.4218 16.443ZM18.5469 23.9354C18.3226 23.9354 18.1034 23.8689 17.917 23.7443C17.7305 23.6198 17.5852 23.4427 17.4994 23.2355C17.4136 23.0283 17.3911 22.8004 17.4349 22.5804C17.4786 22.3605 17.5866 22.1585 17.7452 21.9999C17.9037 21.8414 18.1058 21.7334 18.3257 21.6896C18.5456 21.6459 18.7736 21.6683 18.9808 21.7542C19.1879 21.84 19.365 21.9853 19.4896 22.1717C19.6142 22.3582 19.6807 22.5774 19.6807 22.8016C19.6807 23.1023 19.5612 23.3907 19.3486 23.6033C19.136 23.816 18.8476 23.9354 18.5469 23.9354ZM25.3496 23.9354C25.1254 23.9354 24.9062 23.8689 24.7197 23.7443C24.5333 23.6198 24.3879 23.4427 24.3021 23.2355C24.2163 23.0283 24.1939 22.8004 24.2376 22.5804C24.2814 22.3605 24.3893 22.1585 24.5479 21.9999C24.7065 21.8414 24.9085 21.7334 25.1284 21.6896C25.3484 21.6459 25.5763 21.6683 25.7835 21.7542C25.9907 21.84 26.1677 21.9853 26.2923 22.1717C26.4169 22.3582 26.4834 22.5774 26.4834 22.8016C26.4834 23.1023 26.3639 23.3907 26.1513 23.6033C25.9387 23.816 25.6503 23.9354 25.3496 23.9354Z" fill="white"/>
<defs>
<linearGradient id="paint0_linear_491_1782" x1="0" y1="0" x2="46.4" y2="4.05042" gradientUnits="userSpaceOnUse">
<stop stop-color="#FFE34F"/>
<stop offset="1" stop-color="#FFCA8C"/>
</linearGradient>
</defs>
</svg>
