<svg width="43" height="43" viewBox="0 0 43 43" fill="none" xmlns="http://www.w3.org/2000/svg">
<rect width="43" height="43" rx="10" fill="url(#paint0_linear_491_1789)"/>
<path d="M25.7365 9.14502H17.0768C16.359 9.14502 15.6707 9.43013 15.1632 9.93764C14.6557 10.4451 14.3706 11.1335 14.3706 11.8512V30.2531C14.3706 30.9708 14.6557 31.6591 15.1632 32.1666C15.6707 32.6741 16.359 32.9593 17.0768 32.9593H25.7365C26.4542 32.9593 27.1425 32.6741 27.65 32.1666C28.1575 31.6591 28.4427 30.9708 28.4427 30.2531V11.8512C28.4427 11.1335 28.1575 10.4451 27.65 9.93764C27.1425 9.43013 26.4542 9.14502 25.7365 9.14502ZM21.4066 31.8768C20.5082 31.8768 19.7829 31.1515 19.7829 30.2531C19.7829 29.3546 20.5082 28.6294 21.4066 28.6294C22.3051 28.6294 23.0303 29.3546 23.0303 30.2531C23.0303 31.1515 22.3051 31.8768 21.4066 31.8768ZM26.2777 27.5469H16.5355V12.3924H26.2777V27.5469Z" fill="white"/>
<defs>
<linearGradient id="paint0_linear_491_1789" x1="0" y1="0" x2="43" y2="43" gradientUnits="userSpaceOnUse">
<stop stop-color="#ABDCFF"/>
<stop offset="1" stop-color="#0396FF"/>
</linearGradient>
</defs>
</svg>
