<svg width="48" height="48" viewBox="0 0 48 48" fill="none" xmlns="http://www.w3.org/2000/svg">
<rect width="48" height="48" rx="20" fill="url(#paint0_linear_491_1546)"/>
<path d="M15.4189 22.8643V19.2998H14.894C12.7469 19.2998 11 21.0466 11 23.1938V34.8516C11 35.1478 11.1785 35.4148 11.4521 35.5282C11.5428 35.5658 11.6379 35.584 11.7323 35.584C11.9229 35.584 12.1103 35.5096 12.2503 35.3694L14.9777 32.6421H26.2222C28.3694 32.6421 30.1162 30.8953 30.1162 28.748V28.2231H20.7778C17.8229 28.2231 15.4189 25.8192 15.4189 22.8643Z" fill="white"/>
<path d="M32.106 13.416H20.7778C18.6307 13.416 16.8838 15.1628 16.8838 17.3101V22.8643C16.8838 25.0115 18.6307 26.7583 20.7778 26.7583H32.0223L34.7497 29.4856C34.8897 29.6258 35.0771 29.7002 35.2677 29.7002C35.3621 29.7002 35.4572 29.682 35.5478 29.6444C35.8215 29.5311 36 29.264 36 28.9678V17.3101C36 15.1628 34.2532 13.416 32.106 13.416ZM22.0291 20.7646C21.6185 20.7646 21.3144 20.4291 21.2966 20.0322C21.2789 19.6367 21.6459 19.2998 22.0291 19.2998C22.4396 19.2998 22.7437 19.6354 22.7615 20.0322C22.7792 20.4278 22.4122 20.7646 22.0291 20.7646ZM26.4419 20.7646C26.0313 20.7646 25.7272 20.4291 25.7095 20.0322C25.6917 19.6367 26.0588 19.2998 26.4419 19.2998C26.8525 19.2998 27.1565 19.6354 27.1743 20.0322C27.192 20.4278 26.825 20.7646 26.4419 20.7646ZM30.8547 20.7646C30.4441 20.7646 30.1401 20.4291 30.1223 20.0322C30.1046 19.6367 30.4716 19.2998 30.8547 19.2998C31.2653 19.2998 31.5694 19.6354 31.5872 20.0322C31.6049 20.4278 31.2378 20.7646 30.8547 20.7646Z" fill="white"/>
<defs>
<linearGradient id="paint0_linear_491_1546" x1="0" y1="0" x2="48" y2="48" gradientUnits="userSpaceOnUse">
<stop stop-color="#ABDCFF"/>
<stop offset="1" stop-color="#0396FF"/>
</linearGradient>
</defs>
</svg>
