<svg width="48" height="48" viewBox="0 0 48 48" fill="none" xmlns="http://www.w3.org/2000/svg">
<rect width="48" height="48" rx="20" fill="url(#paint0_linear_491_1536)"/>
<g clip-path="url(#clip0_491_1536)">
<path d="M25.3657 15.9564C25.2494 16.0218 25.1395 16.1013 25.039 16.1946L24.481 16.712L27.1631 19.1456C27.5384 19.4862 27.8236 19.9197 27.9877 20.3993C28.1518 20.8788 28.192 21.3962 28.104 21.8954L26.5675 30.6093C26.3135 32.0496 25.0686 33.0951 23.6074 33.0951C23.4325 33.0951 23.2561 33.0796 23.0831 33.0491L22.5933 32.9627L22.702 33.5794C22.849 34.4133 23.5742 35 24.3926 35C24.4917 35 33.5795 33.4067 33.5795 33.4067C34.5143 33.2419 35.1385 32.3505 34.9736 31.4156L32.8293 19.2545C32.7283 18.682 32.3448 18.1993 31.8098 17.9716L26.8809 15.8734C26.8036 15.8405 26.7247 15.8139 26.645 15.7929L26.4314 14.4561L26.2854 13.543C26.2292 13.1914 25.8986 12.9521 25.5473 13.0082C25.1958 13.0644 24.9564 13.3949 25.0125 13.7464L25.1549 14.6374L25.3657 15.9564Z" fill="white"/>
<path d="M19.6943 23.1917L20.0467 21.1935C20.0397 21.1943 20.033 21.1948 20.026 21.1956C19.5628 21.2506 19.2717 21.6041 19.1538 21.9166C19.0274 22.2516 19.0622 22.5861 19.2446 22.7895C19.3594 22.9175 19.5063 23.0492 19.6943 23.1917Z" fill="white"/>
<path d="M20.3166 24.6116L19.8535 27.2381C20.4825 27.1703 20.9249 26.7135 21.0926 26.2411C21.1751 26.0086 21.3759 25.211 20.4927 24.712C20.4323 24.678 20.3737 24.6445 20.3166 24.6116Z" fill="white"/>
<path d="M20.8531 16.1264C20.7566 16.147 20.6612 16.1756 20.5678 16.2134L15.6108 18.2166C15.0614 18.4387 14.6651 18.9281 14.5622 19.5117L13.0264 28.2215C12.8616 29.1563 13.4858 30.0478 14.4206 30.2126L23.3069 31.7795C23.4079 31.7973 23.5083 31.8059 23.6074 31.8059C24.4257 31.8059 25.151 31.2191 25.298 30.3853L26.8345 21.6713C26.9371 21.0899 26.734 20.4967 26.2968 20.1L22.3667 16.534C22.2902 16.4645 22.2083 16.4032 22.1226 16.3496L22.356 15.0256L22.5799 13.7563C22.6416 13.4058 22.4076 13.0715 22.0571 13.0097C21.7066 12.9477 21.3722 13.1819 21.3104 13.5325L21.0866 14.802L20.8531 16.1264ZM21.1445 19.9162L21.0558 20.4195C21.6388 20.5907 21.9645 20.9346 22.1203 21.0992C22.1421 21.1222 22.1646 21.1461 22.1754 21.156C22.3497 21.3171 22.3603 21.589 22.1992 21.7632C22.0381 21.9375 21.7663 21.9481 21.592 21.787C21.5602 21.7576 21.5291 21.7248 21.4962 21.69C21.3806 21.5679 21.2069 21.3848 20.9051 21.2736L20.4758 23.7083C20.6108 23.7892 20.7567 23.874 20.9154 23.9636C21.8755 24.506 22.2629 25.5128 21.9024 26.5284C21.7253 27.0272 21.3827 27.4586 20.9374 27.7431C20.5634 27.9821 20.1419 28.1048 19.7003 28.1062L19.5917 28.7221C19.555 28.9306 19.3737 29.0772 19.1691 29.0772C19.1443 29.0772 19.1192 29.0751 19.094 29.0707C18.8603 29.0294 18.7042 28.8066 18.7454 28.5729L18.8483 27.9893C18.2874 27.8643 17.8835 27.6764 17.3266 27.1536C17.1535 26.9912 17.145 26.7193 17.3074 26.5462C17.4698 26.3732 17.7417 26.3647 17.9148 26.5271C18.324 26.9112 18.5791 27.0463 18.9976 27.1428L19.5293 24.1277C19.1164 23.852 18.8267 23.6104 18.6049 23.3632C18.2074 22.92 18.1097 22.2494 18.3498 21.613C18.6139 20.9129 19.2175 20.4259 19.9249 20.3421C20.0205 20.3307 20.1121 20.3241 20.2006 20.3208L20.2983 19.767C20.3394 19.5333 20.5623 19.3772 20.796 19.4184C21.0296 19.4596 21.1857 19.6825 21.1445 19.9162Z" fill="white"/>
</g>
<defs>
<linearGradient id="paint0_linear_491_1536" x1="0" y1="0" x2="51.7954" y2="4.52139" gradientUnits="userSpaceOnUse">
<stop stop-color="#FFE34F"/>
<stop offset="1" stop-color="#FFCA8C"/>
</linearGradient>
<clipPath id="clip0_491_1536">
<rect width="22" height="22" fill="white" transform="translate(13 13)"/>
</clipPath>
</defs>
</svg>
