<svg width="573" height="564" viewBox="0 0 573 564" fill="none" xmlns="http://www.w3.org/2000/svg">
<rect width="573" height="564" rx="8" fill="white"/>
<path d="M27.386 33.418H21.87V36.834H26.784V38.038H21.87V42H20.47V32.2H27.386V33.418ZM34.2203 34.58H35.5643V42H34.2903V40.88C33.7443 41.65 32.8203 42.084 31.7703 42.084C29.8523 42.084 28.5783 41.034 28.5783 38.85V34.58H29.9223V38.696C29.9223 40.152 30.6503 40.88 31.9243 40.88C33.3243 40.88 34.2203 40.012 34.2203 38.416V34.58ZM37.8429 42V31.612H39.1869V42H37.8429ZM41.4731 42V31.612H42.8171V42H41.4731ZM55.807 32.2H57.207V42H56.059L50.179 34.692V42H48.779V32.2H49.927L55.807 39.508V32.2ZM62.3663 34.51C64.3963 34.51 65.5443 35.49 65.5443 37.52V42H64.2703V41.02C63.8223 41.692 62.9963 42.084 61.8343 42.084C60.1543 42.084 59.0903 41.188 59.0903 39.9C59.0903 38.71 59.8603 37.73 62.0723 37.73H64.2003V37.464C64.2003 36.33 63.5423 35.672 62.2123 35.672C61.3303 35.672 60.4343 35.98 59.8603 36.47L59.3003 35.462C60.0703 34.846 61.1763 34.51 62.3663 34.51ZM62.0583 41.048C63.0663 41.048 63.8643 40.586 64.2003 39.732V38.696H62.1283C60.7983 38.696 60.4203 39.214 60.4203 39.844C60.4203 40.586 61.0363 41.048 62.0583 41.048ZM77.0335 34.51C78.8395 34.51 80.0715 35.546 80.0715 37.73V42H78.7275V37.884C78.7275 36.428 78.0275 35.714 76.8095 35.714C75.4655 35.714 74.5835 36.568 74.5835 38.178V42H73.2395V37.884C73.2395 36.428 72.5395 35.714 71.3215 35.714C69.9775 35.714 69.0955 36.568 69.0955 38.178V42H67.7515V34.58H69.0395V35.686C69.5715 34.93 70.4815 34.51 71.6015 34.51C72.7355 34.51 73.6875 34.958 74.1775 35.882C74.7375 35.042 75.7735 34.51 77.0335 34.51ZM89.0115 38.332C89.0115 38.444 88.9975 38.612 88.9835 38.738H82.9635C83.1315 40.04 84.1815 40.908 85.6515 40.908C86.5195 40.908 87.2475 40.614 87.7935 40.012L88.5355 40.88C87.8635 41.664 86.8415 42.084 85.6095 42.084C83.2155 42.084 81.6195 40.502 81.6195 38.29C81.6195 36.092 83.2015 34.51 85.3435 34.51C87.4855 34.51 89.0115 36.05 89.0115 38.332ZM85.3435 35.644C84.0555 35.644 83.1035 36.512 82.9635 37.772H87.7235C87.5835 36.526 86.6455 35.644 85.3435 35.644Z" fill="#10162D"/>
<path d="M41.46 85.456H46.356V86.5H40.26V78.1H46.188V79.144H41.46V81.724H45.672V82.744H41.46V85.456ZM51.2871 80.08C52.8351 80.08 53.9271 80.968 53.9271 82.84V86.5H52.7751V82.972C52.7751 81.724 52.1511 81.112 51.0591 81.112C49.8351 81.112 49.0431 81.844 49.0431 83.224V86.5H47.8911V80.14H48.9951V81.1C49.4631 80.452 50.2791 80.08 51.2871 80.08ZM59.035 85.3L59.395 86.128C59.047 86.428 58.519 86.572 58.003 86.572C56.719 86.572 55.987 85.864 55.987 84.58V81.088H54.907V80.14H55.987V78.748H57.139V80.14H58.963V81.088H57.139V84.532C57.139 85.216 57.499 85.6 58.135 85.6C58.471 85.6 58.795 85.492 59.035 85.3ZM66.0848 83.356C66.0848 83.452 66.0728 83.596 66.0608 83.704H60.9008C61.0448 84.82 61.9448 85.564 63.2048 85.564C63.9488 85.564 64.5728 85.312 65.0408 84.796L65.6768 85.54C65.1008 86.212 64.2248 86.572 63.1688 86.572C61.1168 86.572 59.7488 85.216 59.7488 83.32C59.7488 81.436 61.1048 80.08 62.9408 80.08C64.7768 80.08 66.0848 81.4 66.0848 83.356ZM62.9408 81.052C61.8368 81.052 61.0208 81.796 60.9008 82.876H64.9808C64.8608 81.808 64.0568 81.052 62.9408 81.052ZM68.5485 81.208C68.9565 80.464 69.7485 80.08 70.8645 80.08V81.196C70.7685 81.184 70.6845 81.184 70.6005 81.184C69.3645 81.184 68.5965 81.94 68.5965 83.332V86.5H67.4445V80.14H68.5485V81.208ZM79.609 80.14H80.737L77.653 87.136C77.089 88.48 76.357 88.9 75.385 88.9C74.773 88.9 74.149 88.696 73.753 88.312L74.245 87.448C74.557 87.748 74.953 87.916 75.385 87.916C75.937 87.916 76.285 87.664 76.597 86.932L76.801 86.488L73.993 80.14H75.193L77.413 85.228L79.609 80.14ZM84.1204 86.572C82.2124 86.572 80.8084 85.216 80.8084 83.32C80.8084 81.424 82.2124 80.08 84.1204 80.08C86.0284 80.08 87.4204 81.424 87.4204 83.32C87.4204 85.216 86.0284 86.572 84.1204 86.572ZM84.1204 85.564C85.3444 85.564 86.2564 84.676 86.2564 83.32C86.2564 81.964 85.3444 81.088 84.1204 81.088C82.8964 81.088 81.9724 81.964 81.9724 83.32C81.9724 84.676 82.8964 85.564 84.1204 85.564ZM93.5496 80.14H94.7016V86.5H93.6096V85.54C93.1416 86.2 92.3496 86.572 91.4496 86.572C89.8056 86.572 88.7136 85.672 88.7136 83.8V80.14H89.8656V83.668C89.8656 84.916 90.4896 85.54 91.5816 85.54C92.7816 85.54 93.5496 84.796 93.5496 83.428V80.14ZM97.7587 81.208C98.1667 80.464 98.9587 80.08 100.075 80.08V81.196C99.9787 81.184 99.8947 81.184 99.8107 81.184C98.5747 81.184 97.8067 81.94 97.8067 83.332V86.5H96.6547V80.14H97.7587V81.208ZM109.095 80.14H110.247V86.5H109.155V85.54C108.687 86.2 107.895 86.572 106.995 86.572C105.351 86.572 104.259 85.672 104.259 83.8V80.14H105.411V83.668C105.411 84.916 106.035 85.54 107.127 85.54C108.327 85.54 109.095 84.796 109.095 83.428V80.14ZM114.024 86.572C112.968 86.572 111.924 86.248 111.396 85.828L111.876 84.916C112.416 85.3 113.28 85.576 114.108 85.576C115.176 85.576 115.62 85.252 115.62 84.712C115.62 83.284 111.6 84.52 111.6 81.988C111.6 80.848 112.62 80.08 114.252 80.08C115.08 80.08 116.016 80.296 116.568 80.656L116.076 81.568C115.5 81.196 114.864 81.064 114.24 81.064C113.232 81.064 112.74 81.436 112.74 81.94C112.74 83.44 116.772 82.216 116.772 84.688C116.772 85.84 115.716 86.572 114.024 86.572ZM123.72 83.356C123.72 83.452 123.708 83.596 123.696 83.704H118.536C118.68 84.82 119.58 85.564 120.84 85.564C121.584 85.564 122.208 85.312 122.676 84.796L123.312 85.54C122.736 86.212 121.86 86.572 120.804 86.572C118.752 86.572 117.384 85.216 117.384 83.32C117.384 81.436 118.74 80.08 120.576 80.08C122.412 80.08 123.72 81.4 123.72 83.356ZM120.576 81.052C119.472 81.052 118.656 81.796 118.536 82.876H122.616C122.496 81.808 121.692 81.052 120.576 81.052ZM126.184 81.208C126.592 80.464 127.384 80.08 128.5 80.08V81.196C128.404 81.184 128.32 81.184 128.236 81.184C127 81.184 126.232 81.94 126.232 83.332V86.5H125.08V80.14H126.184V81.208ZM133.076 80.08C134.624 80.08 135.716 80.968 135.716 82.84V86.5H134.564V82.972C134.564 81.724 133.94 81.112 132.848 81.112C131.624 81.112 130.832 81.844 130.832 83.224V86.5H129.68V80.14H130.784V81.1C131.252 80.452 132.068 80.08 133.076 80.08ZM139.923 80.08C141.663 80.08 142.647 80.92 142.647 82.66V86.5H141.555V85.66C141.171 86.236 140.463 86.572 139.467 86.572C138.027 86.572 137.115 85.804 137.115 84.7C137.115 83.68 137.775 82.84 139.671 82.84H141.495V82.612C141.495 81.64 140.931 81.076 139.791 81.076C139.035 81.076 138.267 81.34 137.775 81.76L137.295 80.896C137.955 80.368 138.903 80.08 139.923 80.08ZM139.659 85.684C140.523 85.684 141.207 85.288 141.495 84.556V83.668H139.719C138.579 83.668 138.255 84.112 138.255 84.652C138.255 85.288 138.783 85.684 139.659 85.684ZM152.495 80.08C154.043 80.08 155.099 80.968 155.099 82.84V86.5H153.947V82.972C153.947 81.724 153.347 81.112 152.303 81.112C151.151 81.112 150.395 81.844 150.395 83.224V86.5H149.243V82.972C149.243 81.724 148.643 81.112 147.599 81.112C146.447 81.112 145.691 81.844 145.691 83.224V86.5H144.539V80.14H145.643V81.088C146.099 80.44 146.879 80.08 147.839 80.08C148.811 80.08 149.627 80.464 150.047 81.256C150.527 80.536 151.415 80.08 152.495 80.08ZM162.762 83.356C162.762 83.452 162.75 83.596 162.738 83.704H157.578C157.722 84.82 158.622 85.564 159.882 85.564C160.626 85.564 161.25 85.312 161.718 84.796L162.354 85.54C161.778 86.212 160.902 86.572 159.846 86.572C157.794 86.572 156.426 85.216 156.426 83.32C156.426 81.436 157.782 80.08 159.618 80.08C161.454 80.08 162.762 81.4 162.762 83.356ZM159.618 81.052C158.514 81.052 157.698 81.796 157.578 82.876H161.658C161.538 81.808 160.734 81.052 159.618 81.052ZM164.398 86.572C163.954 86.572 163.582 86.224 163.582 85.744C163.582 85.264 163.954 84.928 164.398 84.928C164.83 84.928 165.19 85.264 165.19 85.744C165.19 86.224 164.83 86.572 164.398 86.572ZM166.877 86.572C166.433 86.572 166.061 86.224 166.061 85.744C166.061 85.264 166.433 84.928 166.877 84.928C167.309 84.928 167.669 85.264 167.669 85.744C167.669 86.224 167.309 86.572 166.877 86.572Z" fill="#848FAC"/>
<rect x="19.75" y="59.75" width="259.5" height="45.5" rx="7.25" stroke="#DFE8F6" stroke-width="1.5"/>
<path d="M299.292 32.2C301.84 32.2 303.38 33.488 303.38 35.616C303.38 37.744 301.84 39.032 299.292 39.032H296.87V42H295.47V32.2H299.292ZM299.25 37.814C301.042 37.814 301.98 37.016 301.98 35.616C301.98 34.216 301.042 33.418 299.25 33.418H296.87V37.814H299.25ZM309.06 34.51C310.866 34.51 312.14 35.546 312.14 37.73V42H310.796V37.884C310.796 36.428 310.068 35.714 308.794 35.714C307.366 35.714 306.442 36.568 306.442 38.178V42H305.098V31.612H306.442V35.63C307.002 34.916 307.926 34.51 309.06 34.51ZM317.566 42.084C315.34 42.084 313.702 40.502 313.702 38.29C313.702 36.078 315.34 34.51 317.566 34.51C319.792 34.51 321.416 36.078 321.416 38.29C321.416 40.502 319.792 42.084 317.566 42.084ZM317.566 40.908C318.994 40.908 320.058 39.872 320.058 38.29C320.058 36.708 318.994 35.686 317.566 35.686C316.138 35.686 315.06 36.708 315.06 38.29C315.06 39.872 316.138 40.908 317.566 40.908ZM326.957 34.51C328.763 34.51 330.037 35.546 330.037 37.73V42H328.693V37.884C328.693 36.428 327.965 35.714 326.691 35.714C325.263 35.714 324.339 36.568 324.339 38.178V42H322.995V34.58H324.283V35.7C324.829 34.944 325.781 34.51 326.957 34.51ZM338.991 38.332C338.991 38.444 338.977 38.612 338.963 38.738H332.943C333.111 40.04 334.161 40.908 335.631 40.908C336.499 40.908 337.227 40.614 337.773 40.012L338.515 40.88C337.843 41.664 336.821 42.084 335.589 42.084C333.195 42.084 331.599 40.502 331.599 38.29C331.599 36.092 333.181 34.51 335.323 34.51C337.465 34.51 338.991 36.05 338.991 38.332ZM335.323 35.644C334.035 35.644 333.083 36.512 332.943 37.772H337.703C337.563 36.526 336.625 35.644 335.323 35.644ZM351.281 32.2H352.681V42H351.533L345.653 34.692V42H344.253V32.2H345.401L351.281 39.508V32.2ZM360.71 34.58H362.054V42H360.78V40.88C360.234 41.65 359.31 42.084 358.26 42.084C356.342 42.084 355.068 41.034 355.068 38.85V34.58H356.412V38.696C356.412 40.152 357.14 40.88 358.414 40.88C359.814 40.88 360.71 40.012 360.71 38.416V34.58ZM373.615 34.51C375.421 34.51 376.653 35.546 376.653 37.73V42H375.309V37.884C375.309 36.428 374.609 35.714 373.391 35.714C372.047 35.714 371.165 36.568 371.165 38.178V42H369.821V37.884C369.821 36.428 369.121 35.714 367.903 35.714C366.559 35.714 365.677 36.568 365.677 38.178V42H364.333V34.58H365.621V35.686C366.153 34.93 367.063 34.51 368.183 34.51C369.317 34.51 370.269 34.958 370.759 35.882C371.319 35.042 372.355 34.51 373.615 34.51ZM382.78 34.51C384.95 34.51 386.532 36.022 386.532 38.29C386.532 40.558 384.95 42.084 382.78 42.084C381.688 42.084 380.736 41.664 380.134 40.824V42H378.846V31.612H380.19V35.7C380.806 34.902 381.73 34.51 382.78 34.51ZM382.668 40.908C384.096 40.908 385.174 39.872 385.174 38.29C385.174 36.708 384.096 35.686 382.668 35.686C381.254 35.686 380.176 36.708 380.176 38.29C380.176 39.872 381.254 40.908 382.668 40.908ZM394.815 38.332C394.815 38.444 394.801 38.612 394.787 38.738H388.767C388.935 40.04 389.985 40.908 391.455 40.908C392.323 40.908 393.051 40.614 393.597 40.012L394.339 40.88C393.667 41.664 392.645 42.084 391.413 42.084C389.019 42.084 387.423 40.502 387.423 38.29C387.423 36.092 389.005 34.51 391.147 34.51C393.289 34.51 394.815 36.05 394.815 38.332ZM391.147 35.644C389.859 35.644 388.907 36.512 388.767 37.772H393.527C393.387 36.526 392.449 35.644 391.147 35.644ZM397.689 35.826C398.165 34.958 399.089 34.51 400.391 34.51V35.812C400.279 35.798 400.181 35.798 400.083 35.798C398.641 35.798 397.745 36.68 397.745 38.304V42H396.401V34.58H397.689V35.826Z" fill="#10162D"/>
<path d="M341.753 72.6724H316.247C315.006 72.6724 314 73.6782 314 74.9191V79.2241H344V74.9191C344 73.6782 342.994 72.6724 341.753 72.6724Z" fill="#FF4B55"/>
<path d="M314 90.0808C314 91.3217 315.006 92.3276 316.247 92.3276H341.753C342.994 92.3276 344 91.3217 344 90.0808V85.7759H314V90.0808Z" fill="#464655"/>
<path d="M344 79.2241H314V85.7755H344V79.2241Z" fill="#F5F5F5"/>
<path d="M330.651 81.479C330.651 81.2225 330.399 81.0413 330.156 81.1225L329.699 81.2749L329.588 80.6044C329.521 80.2044 329.179 79.9141 328.773 79.9141H328.345L327.898 80.4646H328.49L328.325 81.2833L327.842 81.1225C327.599 81.0413 327.348 81.2225 327.348 81.479V84.2607L328.013 83.5949L327.7 84.536H327.348V85.0865H330.651V84.536H330.299L329.985 83.5949L330.651 84.2607V81.479H330.651ZM328.724 84.5359H328.28L328.585 83.721L328.724 83.898V84.5359ZM329.274 84.5359V83.898L329.413 83.721L329.718 84.5359H329.274ZM328.999 83.5381C328.999 83.5381 328.148 82.9618 328.182 81.8866C328.182 81.8866 328.707 81.8006 328.999 81.3361C329.292 81.8005 329.816 81.8866 329.816 81.8866C329.851 82.9619 328.999 83.5381 328.999 83.5381Z" fill="#F0C727"/>
<path d="M357.376 80.75L354.734 83.4293C354.423 83.7458 353.912 83.7458 353.6 83.4293L350.959 80.75" stroke="#171A21" stroke-width="1.5" stroke-miterlimit="10" stroke-linecap="round" stroke-linejoin="round"/>
<line opacity="0.6" x1="368.5" y1="71.5" x2="368.5" y2="93.5" stroke="#32CCBC"/>
<path d="M380.008 86.596C378.04 86.596 376.576 85.036 376.576 82.3C376.576 79.564 378.04 78.004 380.008 78.004C381.964 78.004 383.428 79.564 383.428 82.3C383.428 85.036 381.964 86.596 380.008 86.596ZM380.008 85.528C381.316 85.528 382.228 84.448 382.228 82.3C382.228 80.152 381.316 79.072 380.008 79.072C378.688 79.072 377.776 80.152 377.776 82.3C377.776 84.448 378.688 85.528 380.008 85.528ZM383.825 78.1H386.909V86.5H385.721V79.144H383.825V78.1ZM391.938 86.596C389.97 86.596 388.506 85.036 388.506 82.3C388.506 79.564 389.97 78.004 391.938 78.004C393.894 78.004 395.358 79.564 395.358 82.3C395.358 85.036 393.894 86.596 391.938 86.596ZM391.938 85.528C393.246 85.528 394.158 84.448 394.158 82.3C394.158 80.152 393.246 79.072 391.938 79.072C390.618 79.072 389.706 80.152 389.706 82.3C389.706 84.448 390.618 85.528 391.938 85.528ZM399.702 86.596C397.734 86.596 396.27 85.036 396.27 82.3C396.27 79.564 397.734 78.004 399.702 78.004C401.658 78.004 403.122 79.564 403.122 82.3C403.122 85.036 401.658 86.596 399.702 86.596ZM399.702 85.528C401.01 85.528 401.922 84.448 401.922 82.3C401.922 80.152 401.01 79.072 399.702 79.072C398.382 79.072 397.47 80.152 397.47 82.3C397.47 84.448 398.382 85.528 399.702 85.528ZM407.466 86.596C405.498 86.596 404.034 85.036 404.034 82.3C404.034 79.564 405.498 78.004 407.466 78.004C409.422 78.004 410.886 79.564 410.886 82.3C410.886 85.036 409.422 86.596 407.466 86.596ZM407.466 85.528C408.774 85.528 409.686 84.448 409.686 82.3C409.686 80.152 408.774 79.072 407.466 79.072C406.146 79.072 405.234 80.152 405.234 82.3C405.234 84.448 406.146 85.528 407.466 85.528ZM415.23 86.596C413.262 86.596 411.798 85.036 411.798 82.3C411.798 79.564 413.262 78.004 415.23 78.004C417.186 78.004 418.65 79.564 418.65 82.3C418.65 85.036 417.186 86.596 415.23 86.596ZM415.23 85.528C416.538 85.528 417.45 84.448 417.45 82.3C417.45 80.152 416.538 79.072 415.23 79.072C413.91 79.072 412.998 80.152 412.998 82.3C412.998 84.448 413.91 85.528 415.23 85.528ZM422.994 86.596C421.026 86.596 419.562 85.036 419.562 82.3C419.562 79.564 421.026 78.004 422.994 78.004C424.95 78.004 426.414 79.564 426.414 82.3C426.414 85.036 424.95 86.596 422.994 86.596ZM422.994 85.528C424.302 85.528 425.214 84.448 425.214 82.3C425.214 80.152 424.302 79.072 422.994 79.072C421.674 79.072 420.762 80.152 420.762 82.3C420.762 84.448 421.674 85.528 422.994 85.528ZM430.758 86.596C428.79 86.596 427.326 85.036 427.326 82.3C427.326 79.564 428.79 78.004 430.758 78.004C432.714 78.004 434.178 79.564 434.178 82.3C434.178 85.036 432.714 86.596 430.758 86.596ZM430.758 85.528C432.066 85.528 432.978 84.448 432.978 82.3C432.978 80.152 432.066 79.072 430.758 79.072C429.438 79.072 428.526 80.152 428.526 82.3C428.526 84.448 429.438 85.528 430.758 85.528ZM438.522 86.596C436.554 86.596 435.09 85.036 435.09 82.3C435.09 79.564 436.554 78.004 438.522 78.004C440.478 78.004 441.942 79.564 441.942 82.3C441.942 85.036 440.478 86.596 438.522 86.596ZM438.522 85.528C439.83 85.528 440.742 84.448 440.742 82.3C440.742 80.152 439.83 79.072 438.522 79.072C437.202 79.072 436.29 80.152 436.29 82.3C436.29 84.448 437.202 85.528 438.522 85.528ZM446.285 86.596C444.317 86.596 442.853 85.036 442.853 82.3C442.853 79.564 444.317 78.004 446.285 78.004C448.241 78.004 449.705 79.564 449.705 82.3C449.705 85.036 448.241 86.596 446.285 86.596ZM446.285 85.528C447.593 85.528 448.505 84.448 448.505 82.3C448.505 80.152 447.593 79.072 446.285 79.072C444.965 79.072 444.053 80.152 444.053 82.3C444.053 84.448 444.965 85.528 446.285 85.528ZM454.049 86.596C452.081 86.596 450.617 85.036 450.617 82.3C450.617 79.564 452.081 78.004 454.049 78.004C456.005 78.004 457.469 79.564 457.469 82.3C457.469 85.036 456.005 86.596 454.049 86.596ZM454.049 85.528C455.357 85.528 456.269 84.448 456.269 82.3C456.269 80.152 455.357 79.072 454.049 79.072C452.729 79.072 451.817 80.152 451.817 82.3C451.817 84.448 452.729 85.528 454.049 85.528ZM461.813 86.596C459.845 86.596 458.381 85.036 458.381 82.3C458.381 79.564 459.845 78.004 461.813 78.004C463.769 78.004 465.233 79.564 465.233 82.3C465.233 85.036 463.769 86.596 461.813 86.596ZM461.813 85.528C463.121 85.528 464.033 84.448 464.033 82.3C464.033 80.152 463.121 79.072 461.813 79.072C460.493 79.072 459.581 80.152 459.581 82.3C459.581 84.448 460.493 85.528 461.813 85.528ZM469.577 86.596C467.609 86.596 466.145 85.036 466.145 82.3C466.145 79.564 467.609 78.004 469.577 78.004C471.533 78.004 472.997 79.564 472.997 82.3C472.997 85.036 471.533 86.596 469.577 86.596ZM469.577 85.528C470.885 85.528 471.797 84.448 471.797 82.3C471.797 80.152 470.885 79.072 469.577 79.072C468.257 79.072 467.345 80.152 467.345 82.3C467.345 84.448 468.257 85.528 469.577 85.528Z" fill="#848FAC"/>
<rect x="294.75" y="59.75" width="259.5" height="45.5" rx="7.25" stroke="#DFE8F6" stroke-width="1.5"/>
<path d="M21.87 136.782H27.582V138H20.47V128.2H27.386V129.418H21.87V132.428H26.784V133.618H21.87V136.782ZM38.6549 130.51C40.4609 130.51 41.6929 131.546 41.6929 133.73V138H40.3489V133.884C40.3489 132.428 39.6489 131.714 38.4309 131.714C37.0869 131.714 36.2049 132.568 36.2049 134.178V138H34.8609V133.884C34.8609 132.428 34.1609 131.714 32.9429 131.714C31.5989 131.714 30.7169 132.568 30.7169 134.178V138H29.3729V130.58H30.6609V131.686C31.1929 130.93 32.1029 130.51 33.2229 130.51C34.3569 130.51 35.3089 130.958 35.7989 131.882C36.3589 131.042 37.3949 130.51 38.6549 130.51ZM46.5879 130.51C48.6179 130.51 49.7659 131.49 49.7659 133.52V138H48.4919V137.02C48.0439 137.692 47.2179 138.084 46.0559 138.084C44.3759 138.084 43.3119 137.188 43.3119 135.9C43.3119 134.71 44.0819 133.73 46.2939 133.73H48.4219V133.464C48.4219 132.33 47.7639 131.672 46.4339 131.672C45.5519 131.672 44.6559 131.98 44.0819 132.47L43.5219 131.462C44.2919 130.846 45.3979 130.51 46.5879 130.51ZM46.2799 137.048C47.2879 137.048 48.0859 136.586 48.4219 135.732V134.696H46.3499C45.0199 134.696 44.6419 135.214 44.6419 135.844C44.6419 136.586 45.2579 137.048 46.2799 137.048ZM52.6451 129.152C52.1271 129.152 51.7351 128.774 51.7351 128.284C51.7351 127.794 52.1271 127.402 52.6451 127.402C53.1631 127.402 53.5551 127.78 53.5551 128.256C53.5551 128.76 53.1771 129.152 52.6451 129.152ZM51.9731 138V130.58H53.3171V138H51.9731ZM55.6032 138V127.612H56.9472V138H55.6032ZM70.2311 138L69.1531 135.55H63.9451L62.8671 138H61.4251L65.8631 128.2H67.2491L71.7011 138H70.2311ZM64.4351 134.43H68.6631L66.5491 129.628L64.4351 134.43ZM78.2747 127.612H79.6187V138H78.3307V136.824C77.7287 137.664 76.7767 138.084 75.6847 138.084C73.5147 138.084 71.9327 136.558 71.9327 134.29C71.9327 132.022 73.5147 130.51 75.6847 130.51C76.7347 130.51 77.6587 130.902 78.2747 131.7V127.612ZM75.7967 136.908C77.2107 136.908 78.2887 135.872 78.2887 134.29C78.2887 132.708 77.2107 131.686 75.7967 131.686C74.3687 131.686 73.2907 132.708 73.2907 134.29C73.2907 135.872 74.3687 136.908 75.7967 136.908ZM87.5377 127.612H88.8817V138H87.5937V136.824C86.9917 137.664 86.0397 138.084 84.9477 138.084C82.7777 138.084 81.1957 136.558 81.1957 134.29C81.1957 132.022 82.7777 130.51 84.9477 130.51C85.9977 130.51 86.9217 130.902 87.5377 131.7V127.612ZM85.0597 136.908C86.4737 136.908 87.5517 135.872 87.5517 134.29C87.5517 132.708 86.4737 131.686 85.0597 131.686C83.6317 131.686 82.5537 132.708 82.5537 134.29C82.5537 135.872 83.6317 136.908 85.0597 136.908ZM92.4326 131.826C92.9086 130.958 93.8326 130.51 95.1346 130.51V131.812C95.0226 131.798 94.9246 131.798 94.8266 131.798C93.3846 131.798 92.4886 132.68 92.4886 134.304V138H91.1446V130.58H92.4326V131.826ZM103.149 134.332C103.149 134.444 103.135 134.612 103.121 134.738H97.1007C97.2687 136.04 98.3187 136.908 99.7887 136.908C100.657 136.908 101.385 136.614 101.931 136.012L102.673 136.88C102.001 137.664 100.979 138.084 99.7467 138.084C97.3527 138.084 95.7567 136.502 95.7567 134.29C95.7567 132.092 97.3387 130.51 99.4807 130.51C101.623 130.51 103.149 132.05 103.149 134.332ZM99.4807 131.644C98.1927 131.644 97.2407 132.512 97.1007 133.772H101.861C101.721 132.526 100.783 131.644 99.4807 131.644ZM106.863 138.084C105.631 138.084 104.413 137.706 103.797 137.216L104.357 136.152C104.987 136.6 105.995 136.922 106.961 136.922C108.207 136.922 108.725 136.544 108.725 135.914C108.725 134.248 104.035 135.69 104.035 132.736C104.035 131.406 105.225 130.51 107.129 130.51C108.095 130.51 109.187 130.762 109.831 131.182L109.257 132.246C108.585 131.812 107.843 131.658 107.115 131.658C105.939 131.658 105.365 132.092 105.365 132.68C105.365 134.43 110.069 133.002 110.069 135.886C110.069 137.23 108.837 138.084 106.863 138.084ZM113.597 138.084C112.365 138.084 111.147 137.706 110.531 137.216L111.091 136.152C111.721 136.6 112.729 136.922 113.695 136.922C114.941 136.922 115.459 136.544 115.459 135.914C115.459 134.248 110.769 135.69 110.769 132.736C110.769 131.406 111.959 130.51 113.863 130.51C114.829 130.51 115.921 130.762 116.565 131.182L115.991 132.246C115.319 131.812 114.577 131.658 113.849 131.658C112.673 131.658 112.099 132.092 112.099 132.68C112.099 134.43 116.803 133.002 116.803 135.886C116.803 137.23 115.571 138.084 113.597 138.084Z" fill="#10162D"/>
<path d="M41.46 181.456H46.356V182.5H40.26V174.1H46.188V175.144H41.46V177.724H45.672V178.744H41.46V181.456ZM51.2871 176.08C52.8351 176.08 53.9271 176.968 53.9271 178.84V182.5H52.7751V178.972C52.7751 177.724 52.1511 177.112 51.0591 177.112C49.8351 177.112 49.0431 177.844 49.0431 179.224V182.5H47.8911V176.14H48.9951V177.1C49.4631 176.452 50.2791 176.08 51.2871 176.08ZM59.035 181.3L59.395 182.128C59.047 182.428 58.519 182.572 58.003 182.572C56.719 182.572 55.987 181.864 55.987 180.58V177.088H54.907V176.14H55.987V174.748H57.139V176.14H58.963V177.088H57.139V180.532C57.139 181.216 57.499 181.6 58.135 181.6C58.471 181.6 58.795 181.492 59.035 181.3ZM66.0848 179.356C66.0848 179.452 66.0728 179.596 66.0608 179.704H60.9008C61.0448 180.82 61.9448 181.564 63.2048 181.564C63.9488 181.564 64.5728 181.312 65.0408 180.796L65.6768 181.54C65.1008 182.212 64.2248 182.572 63.1688 182.572C61.1168 182.572 59.7488 181.216 59.7488 179.32C59.7488 177.436 61.1048 176.08 62.9408 176.08C64.7768 176.08 66.0848 177.4 66.0848 179.356ZM62.9408 177.052C61.8368 177.052 61.0208 177.796 60.9008 178.876H64.9808C64.8608 177.808 64.0568 177.052 62.9408 177.052ZM68.5485 177.208C68.9565 176.464 69.7485 176.08 70.8645 176.08V177.196C70.7685 177.184 70.6845 177.184 70.6005 177.184C69.3645 177.184 68.5965 177.94 68.5965 179.332V182.5H67.4445V176.14H68.5485V177.208ZM79.609 176.14H80.737L77.653 183.136C77.089 184.48 76.357 184.9 75.385 184.9C74.773 184.9 74.149 184.696 73.753 184.312L74.245 183.448C74.557 183.748 74.953 183.916 75.385 183.916C75.937 183.916 76.285 183.664 76.597 182.932L76.801 182.488L73.993 176.14H75.193L77.413 181.228L79.609 176.14ZM84.1204 182.572C82.2124 182.572 80.8084 181.216 80.8084 179.32C80.8084 177.424 82.2124 176.08 84.1204 176.08C86.0284 176.08 87.4204 177.424 87.4204 179.32C87.4204 181.216 86.0284 182.572 84.1204 182.572ZM84.1204 181.564C85.3444 181.564 86.2564 180.676 86.2564 179.32C86.2564 177.964 85.3444 177.088 84.1204 177.088C82.8964 177.088 81.9724 177.964 81.9724 179.32C81.9724 180.676 82.8964 181.564 84.1204 181.564ZM93.5496 176.14H94.7016V182.5H93.6096V181.54C93.1416 182.2 92.3496 182.572 91.4496 182.572C89.8056 182.572 88.7136 181.672 88.7136 179.8V176.14H89.8656V179.668C89.8656 180.916 90.4896 181.54 91.5816 181.54C92.7816 181.54 93.5496 180.796 93.5496 179.428V176.14ZM97.7587 177.208C98.1667 176.464 98.9587 176.08 100.075 176.08V177.196C99.9787 177.184 99.8947 177.184 99.8107 177.184C98.5747 177.184 97.8067 177.94 97.8067 179.332V182.5H96.6547V176.14H97.7587V177.208ZM110.067 179.356C110.067 179.452 110.055 179.596 110.043 179.704H104.883C105.027 180.82 105.927 181.564 107.187 181.564C107.931 181.564 108.555 181.312 109.023 180.796L109.659 181.54C109.083 182.212 108.207 182.572 107.151 182.572C105.099 182.572 103.731 181.216 103.731 179.32C103.731 177.436 105.087 176.08 106.923 176.08C108.759 176.08 110.067 177.4 110.067 179.356ZM106.923 177.052C105.819 177.052 105.003 177.796 104.883 178.876H108.963C108.843 177.808 108.039 177.052 106.923 177.052ZM119.383 176.08C120.931 176.08 121.987 176.968 121.987 178.84V182.5H120.835V178.972C120.835 177.724 120.235 177.112 119.191 177.112C118.039 177.112 117.283 177.844 117.283 179.224V182.5H116.131V178.972C116.131 177.724 115.531 177.112 114.487 177.112C113.335 177.112 112.579 177.844 112.579 179.224V182.5H111.427V176.14H112.531V177.088C112.987 176.44 113.767 176.08 114.727 176.08C115.699 176.08 116.515 176.464 116.935 177.256C117.415 176.536 118.303 176.08 119.383 176.08ZM126.183 176.08C127.923 176.08 128.907 176.92 128.907 178.66V182.5H127.815V181.66C127.431 182.236 126.723 182.572 125.727 182.572C124.287 182.572 123.375 181.804 123.375 180.7C123.375 179.68 124.035 178.84 125.931 178.84H127.755V178.612C127.755 177.64 127.191 177.076 126.051 177.076C125.295 177.076 124.527 177.34 124.035 177.76L123.555 176.896C124.215 176.368 125.163 176.08 126.183 176.08ZM125.919 181.684C126.783 181.684 127.467 181.288 127.755 180.556V179.668H125.979C124.839 179.668 124.515 180.112 124.515 180.652C124.515 181.288 125.043 181.684 125.919 181.684ZM131.374 174.916C130.93 174.916 130.594 174.592 130.594 174.172C130.594 173.752 130.93 173.416 131.374 173.416C131.818 173.416 132.154 173.74 132.154 174.148C132.154 174.58 131.83 174.916 131.374 174.916ZM130.798 182.5V176.14H131.95V182.5H130.798ZM133.91 182.5V173.596H135.062V182.5H133.91ZM137.298 182.572C136.854 182.572 136.482 182.224 136.482 181.744C136.482 181.264 136.854 180.928 137.298 180.928C137.73 180.928 138.09 181.264 138.09 181.744C138.09 182.224 137.73 182.572 137.298 182.572ZM139.776 182.572C139.332 182.572 138.96 182.224 138.96 181.744C138.96 181.264 139.332 180.928 139.776 180.928C140.208 180.928 140.568 181.264 140.568 181.744C140.568 182.224 140.208 182.572 139.776 182.572Z" fill="#848FAC"/>
<rect x="19.75" y="155.75" width="534.5" height="45.5" rx="7.25" stroke="#DFE8F6" stroke-width="1.5"/>
<path d="M24.292 224.2C26.84 224.2 28.38 225.488 28.38 227.616C28.38 229.744 26.84 231.032 24.292 231.032H21.87V234H20.47V224.2H24.292ZM24.25 229.814C26.042 229.814 26.98 229.016 26.98 227.616C26.98 226.216 26.042 225.418 24.25 225.418H21.87V229.814H24.25ZM31.1258 227.826C31.6018 226.958 32.5258 226.51 33.8278 226.51V227.812C33.7158 227.798 33.6178 227.798 33.5198 227.798C32.0778 227.798 31.1818 228.68 31.1818 230.304V234H29.8378V226.58H31.1258V227.826ZM38.3139 234.084C36.0879 234.084 34.4499 232.502 34.4499 230.29C34.4499 228.078 36.0879 226.51 38.3139 226.51C40.5399 226.51 42.1639 228.078 42.1639 230.29C42.1639 232.502 40.5399 234.084 38.3139 234.084ZM38.3139 232.908C39.7419 232.908 40.8059 231.872 40.8059 230.29C40.8059 228.708 39.7419 227.686 38.3139 227.686C36.8859 227.686 35.8079 228.708 35.8079 230.29C35.8079 231.872 36.8859 232.908 38.3139 232.908ZM44.4846 225.152C43.9666 225.152 43.5746 224.774 43.5746 224.284C43.5746 223.794 43.9666 223.402 44.4846 223.402C45.0026 223.402 45.3946 223.78 45.3946 224.256C45.3946 224.76 45.0166 225.152 44.4846 225.152ZM42.7906 236.8C42.1746 236.8 41.5586 236.66 41.1806 236.352L41.6146 235.316C41.8806 235.54 42.2726 235.666 42.7066 235.666C43.4206 235.666 43.8126 235.218 43.8126 234.364V226.58H45.1566V234.336C45.1566 235.848 44.3166 236.8 42.7906 236.8ZM54.1471 230.332C54.1471 230.444 54.1331 230.612 54.1191 230.738H48.0991C48.2671 232.04 49.3171 232.908 50.7871 232.908C51.6551 232.908 52.3831 232.614 52.9291 232.012L53.6711 232.88C52.9991 233.664 51.9771 234.084 50.7451 234.084C48.3511 234.084 46.7551 232.502 46.7551 230.29C46.7551 228.092 48.3371 226.51 50.4791 226.51C52.6211 226.51 54.1471 228.05 54.1471 230.332ZM50.4791 227.644C49.1911 227.644 48.2391 228.512 48.0991 229.772H52.8591C52.7191 228.526 51.7811 227.644 50.4791 227.644ZM58.9674 234.084C56.6854 234.084 55.0474 232.502 55.0474 230.29C55.0474 228.078 56.6854 226.51 58.9674 226.51C60.2974 226.51 61.4034 227.056 61.9914 228.092L60.9694 228.75C60.4934 228.022 59.7654 227.686 58.9534 227.686C57.4974 227.686 56.4054 228.708 56.4054 230.29C56.4054 231.9 57.4974 232.908 58.9534 232.908C59.7654 232.908 60.4934 232.572 60.9694 231.844L61.9914 232.488C61.4034 233.524 60.2974 234.084 58.9674 234.084ZM67.2991 232.6L67.7191 233.566C67.3131 233.916 66.6971 234.084 66.0951 234.084C64.5971 234.084 63.7431 233.258 63.7431 231.76V227.686H62.4831V226.58H63.7431V224.956H65.0871V226.58H67.2151V227.686H65.0871V231.704C65.0871 232.502 65.5071 232.95 66.2491 232.95C66.6411 232.95 67.0191 232.824 67.2991 232.6ZM76.2958 232.6L76.7158 233.566C76.3098 233.916 75.6938 234.084 75.0918 234.084C73.5938 234.084 72.7398 233.258 72.7398 231.76V227.686H71.4798V226.58H72.7398V224.956H74.0838V226.58H76.2118V227.686H74.0838V231.704C74.0838 232.502 74.5038 232.95 75.2458 232.95C75.6378 232.95 76.0158 232.824 76.2958 232.6ZM83.1739 226.58H84.4899L80.8919 234.742C80.2339 236.31 79.3799 236.8 78.2459 236.8C77.5319 236.8 76.8039 236.562 76.3419 236.114L76.9159 235.106C77.2799 235.456 77.7419 235.652 78.2459 235.652C78.8899 235.652 79.2959 235.358 79.6599 234.504L79.8979 233.986L76.6219 226.58H78.0219L80.6119 232.516L83.1739 226.58ZM89.3982 226.51C91.5682 226.51 93.1502 228.022 93.1502 230.29C93.1502 232.572 91.5682 234.084 89.3982 234.084C88.3482 234.084 87.4242 233.678 86.8082 232.88V236.716H85.4642V226.58H86.7522V227.756C87.3542 226.93 88.3062 226.51 89.3982 226.51ZM89.2862 232.908C90.7142 232.908 91.7922 231.872 91.7922 230.29C91.7922 228.722 90.7142 227.686 89.2862 227.686C87.8722 227.686 86.7942 228.722 86.7942 230.29C86.7942 231.872 87.8722 232.908 89.2862 232.908ZM101.433 230.332C101.433 230.444 101.419 230.612 101.405 230.738H95.3852C95.5532 232.04 96.6032 232.908 98.0732 232.908C98.9412 232.908 99.6692 232.614 100.215 232.012L100.957 232.88C100.285 233.664 99.2632 234.084 98.0312 234.084C95.6372 234.084 94.0412 232.502 94.0412 230.29C94.0412 228.092 95.6232 226.51 97.7652 226.51C99.9072 226.51 101.433 228.05 101.433 230.332ZM97.7652 227.644C96.4772 227.644 95.5252 228.512 95.3852 229.772H100.145C100.005 228.526 99.0672 227.644 97.7652 227.644Z" fill="#10162D"/>
<path d="M44.016 278.596C41.472 278.596 39.576 276.784 39.576 274.3C39.576 271.816 41.472 270.004 44.028 270.004C45.324 270.004 46.452 270.448 47.22 271.312L46.44 272.068C45.792 271.384 45 271.072 44.076 271.072C42.18 271.072 40.776 272.44 40.776 274.3C40.776 276.16 42.18 277.528 44.076 277.528C45 277.528 45.792 277.204 46.44 276.52L47.22 277.276C46.452 278.14 45.324 278.596 44.016 278.596ZM51.9199 272.08C53.4679 272.08 54.5599 272.968 54.5599 274.84V278.5H53.4079V274.972C53.4079 273.724 52.7839 273.112 51.6919 273.112C50.4679 273.112 49.6759 273.844 49.6759 275.224V278.5H48.5239V269.596H49.6759V273.04C50.1559 272.428 50.9479 272.08 51.9199 272.08ZM59.211 278.572C57.303 278.572 55.899 277.216 55.899 275.32C55.899 273.424 57.303 272.08 59.211 272.08C61.119 272.08 62.511 273.424 62.511 275.32C62.511 277.216 61.119 278.572 59.211 278.572ZM59.211 277.564C60.435 277.564 61.347 276.676 61.347 275.32C61.347 273.964 60.435 273.088 59.211 273.088C57.987 273.088 57.063 273.964 57.063 275.32C57.063 276.676 57.987 277.564 59.211 277.564ZM66.5882 278.572C64.6802 278.572 63.2762 277.216 63.2762 275.32C63.2762 273.424 64.6802 272.08 66.5882 272.08C68.4962 272.08 69.8882 273.424 69.8882 275.32C69.8882 277.216 68.4962 278.572 66.5882 278.572ZM66.5882 277.564C67.8122 277.564 68.7242 276.676 68.7242 275.32C68.7242 273.964 67.8122 273.088 66.5882 273.088C65.3642 273.088 64.4402 273.964 64.4402 275.32C64.4402 276.676 65.3642 277.564 66.5882 277.564ZM73.0654 278.572C72.0094 278.572 70.9654 278.248 70.4374 277.828L70.9174 276.916C71.4574 277.3 72.3214 277.576 73.1494 277.576C74.2174 277.576 74.6614 277.252 74.6614 276.712C74.6614 275.284 70.6414 276.52 70.6414 273.988C70.6414 272.848 71.6614 272.08 73.2934 272.08C74.1214 272.08 75.0574 272.296 75.6094 272.656L75.1174 273.568C74.5414 273.196 73.9054 273.064 73.2814 273.064C72.2734 273.064 71.7814 273.436 71.7814 273.94C71.7814 275.44 75.8134 274.216 75.8134 276.688C75.8134 277.84 74.7574 278.572 73.0654 278.572ZM82.7611 275.356C82.7611 275.452 82.7491 275.596 82.7371 275.704H77.5771C77.7211 276.82 78.6211 277.564 79.8811 277.564C80.6251 277.564 81.2491 277.312 81.7171 276.796L82.3531 277.54C81.7771 278.212 80.9011 278.572 79.8451 278.572C77.7931 278.572 76.4251 277.216 76.4251 275.32C76.4251 273.436 77.7811 272.08 79.6171 272.08C81.4531 272.08 82.7611 273.4 82.7611 275.356ZM79.6171 273.052C78.5131 273.052 77.6971 273.796 77.5771 274.876H81.6571C81.5371 273.808 80.7331 273.052 79.6171 273.052ZM90.4994 272.08C92.0474 272.08 93.1394 272.968 93.1394 274.84V278.5H91.9874V274.972C91.9874 273.724 91.3634 273.112 90.2714 273.112C89.0474 273.112 88.2554 273.844 88.2554 275.224V278.5H87.1034V269.596H88.2554V273.04C88.7354 272.428 89.5274 272.08 90.4994 272.08ZM100.815 275.356C100.815 275.452 100.803 275.596 100.791 275.704H95.6305C95.7745 276.82 96.6745 277.564 97.9345 277.564C98.6785 277.564 99.3025 277.312 99.7705 276.796L100.407 277.54C99.8305 278.212 98.9545 278.572 97.8985 278.572C95.8465 278.572 94.4785 277.216 94.4785 275.32C94.4785 273.436 95.8345 272.08 97.6705 272.08C99.5065 272.08 100.815 273.4 100.815 275.356ZM97.6705 273.052C96.5665 273.052 95.7505 273.796 95.6305 274.876H99.7105C99.5905 273.808 98.7865 273.052 97.6705 273.052ZM103.278 273.208C103.686 272.464 104.478 272.08 105.594 272.08V273.196C105.498 273.184 105.414 273.184 105.33 273.184C104.094 273.184 103.326 273.94 103.326 275.332V278.5H102.174V272.14H103.278V273.208ZM112.463 275.356C112.463 275.452 112.451 275.596 112.439 275.704H107.279C107.423 276.82 108.323 277.564 109.583 277.564C110.327 277.564 110.951 277.312 111.419 276.796L112.055 277.54C111.479 278.212 110.603 278.572 109.547 278.572C107.495 278.572 106.127 277.216 106.127 275.32C106.127 273.436 107.483 272.08 109.319 272.08C111.155 272.08 112.463 273.4 112.463 275.356ZM109.319 273.052C108.215 273.052 107.399 273.796 107.279 274.876H111.359C111.239 273.808 110.435 273.052 109.319 273.052Z" fill="#848FAC"/>
<path d="M526.376 272.75L523.734 275.429C523.423 275.746 522.912 275.746 522.6 275.429L519.959 272.75" stroke="#171A21" stroke-width="1.5" stroke-miterlimit="10" stroke-linecap="round" stroke-linejoin="round"/>
<rect x="19.75" y="251.75" width="534.5" height="45.5" rx="7.25" stroke="#DFE8F6" stroke-width="1.5"/>
<path d="M24.292 320.2C26.84 320.2 28.38 321.488 28.38 323.616C28.38 325.744 26.84 327.032 24.292 327.032H21.87V330H20.47V320.2H24.292ZM24.25 325.814C26.042 325.814 26.98 325.016 26.98 323.616C26.98 322.216 26.042 321.418 24.25 321.418H21.87V325.814H24.25ZM31.1258 323.826C31.6018 322.958 32.5258 322.51 33.8278 322.51V323.812C33.7158 323.798 33.6178 323.798 33.5198 323.798C32.0778 323.798 31.1818 324.68 31.1818 326.304V330H29.8378V322.58H31.1258V323.826ZM38.3139 330.084C36.0879 330.084 34.4499 328.502 34.4499 326.29C34.4499 324.078 36.0879 322.51 38.3139 322.51C40.5399 322.51 42.1639 324.078 42.1639 326.29C42.1639 328.502 40.5399 330.084 38.3139 330.084ZM38.3139 328.908C39.7419 328.908 40.8059 327.872 40.8059 326.29C40.8059 324.708 39.7419 323.686 38.3139 323.686C36.8859 323.686 35.8079 324.708 35.8079 326.29C35.8079 327.872 36.8859 328.908 38.3139 328.908ZM44.4846 321.152C43.9666 321.152 43.5746 320.774 43.5746 320.284C43.5746 319.794 43.9666 319.402 44.4846 319.402C45.0026 319.402 45.3946 319.78 45.3946 320.256C45.3946 320.76 45.0166 321.152 44.4846 321.152ZM42.7906 332.8C42.1746 332.8 41.5586 332.66 41.1806 332.352L41.6146 331.316C41.8806 331.54 42.2726 331.666 42.7066 331.666C43.4206 331.666 43.8126 331.218 43.8126 330.364V322.58H45.1566V330.336C45.1566 331.848 44.3166 332.8 42.7906 332.8ZM54.1471 326.332C54.1471 326.444 54.1331 326.612 54.1191 326.738H48.0991C48.2671 328.04 49.3171 328.908 50.7871 328.908C51.6551 328.908 52.3831 328.614 52.9291 328.012L53.6711 328.88C52.9991 329.664 51.9771 330.084 50.7451 330.084C48.3511 330.084 46.7551 328.502 46.7551 326.29C46.7551 324.092 48.3371 322.51 50.4791 322.51C52.6211 322.51 54.1471 324.05 54.1471 326.332ZM50.4791 323.644C49.1911 323.644 48.2391 324.512 48.0991 325.772H52.8591C52.7191 324.526 51.7811 323.644 50.4791 323.644ZM58.9674 330.084C56.6854 330.084 55.0474 328.502 55.0474 326.29C55.0474 324.078 56.6854 322.51 58.9674 322.51C60.2974 322.51 61.4034 323.056 61.9914 324.092L60.9694 324.75C60.4934 324.022 59.7654 323.686 58.9534 323.686C57.4974 323.686 56.4054 324.708 56.4054 326.29C56.4054 327.9 57.4974 328.908 58.9534 328.908C59.7654 328.908 60.4934 328.572 60.9694 327.844L61.9914 328.488C61.4034 329.524 60.2974 330.084 58.9674 330.084ZM67.2991 328.6L67.7191 329.566C67.3131 329.916 66.6971 330.084 66.0951 330.084C64.5971 330.084 63.7431 329.258 63.7431 327.76V323.686H62.4831V322.58H63.7431V320.956H65.0871V322.58H67.2151V323.686H65.0871V327.704C65.0871 328.502 65.5071 328.95 66.2491 328.95C66.6411 328.95 67.0191 328.824 67.2991 328.6ZM78.1998 319.612H79.5438V330H78.2558V328.824C77.6538 329.664 76.7018 330.084 75.6098 330.084C73.4398 330.084 71.8578 328.558 71.8578 326.29C71.8578 324.022 73.4398 322.51 75.6098 322.51C76.6598 322.51 77.5838 322.902 78.1998 323.7V319.612ZM75.7218 328.908C77.1358 328.908 78.2138 327.872 78.2138 326.29C78.2138 324.708 77.1358 323.686 75.7218 323.686C74.2938 323.686 73.2158 324.708 73.2158 326.29C73.2158 327.872 74.2938 328.908 75.7218 328.908ZM88.5127 326.332C88.5127 326.444 88.4987 326.612 88.4847 326.738H82.4647C82.6327 328.04 83.6827 328.908 85.1527 328.908C86.0207 328.908 86.7487 328.614 87.2947 328.012L88.0367 328.88C87.3647 329.664 86.3427 330.084 85.1107 330.084C82.7167 330.084 81.1207 328.502 81.1207 326.29C81.1207 324.092 82.7027 322.51 84.8447 322.51C86.9867 322.51 88.5127 324.05 88.5127 326.332ZM84.8447 323.644C83.5567 323.644 82.6047 324.512 82.4647 325.772H87.2247C87.0847 324.526 86.1467 323.644 84.8447 323.644ZM92.227 330.084C90.995 330.084 89.777 329.706 89.161 329.216L89.721 328.152C90.351 328.6 91.359 328.922 92.325 328.922C93.571 328.922 94.089 328.544 94.089 327.914C94.089 326.248 89.399 327.69 89.399 324.736C89.399 323.406 90.589 322.51 92.493 322.51C93.459 322.51 94.551 322.762 95.195 323.182L94.621 324.246C93.949 323.812 93.207 323.658 92.479 323.658C91.303 323.658 90.729 324.092 90.729 324.68C90.729 326.43 95.433 325.002 95.433 327.886C95.433 329.23 94.201 330.084 92.227 330.084ZM100.067 330.084C97.7847 330.084 96.1467 328.502 96.1467 326.29C96.1467 324.078 97.7847 322.51 100.067 322.51C101.397 322.51 102.503 323.056 103.091 324.092L102.069 324.75C101.593 324.022 100.865 323.686 100.053 323.686C98.5967 323.686 97.5047 324.708 97.5047 326.29C97.5047 327.9 98.5967 328.908 100.053 328.908C100.865 328.908 101.593 328.572 102.069 327.844L103.091 328.488C102.503 329.524 101.397 330.084 100.067 330.084ZM105.839 323.826C106.315 322.958 107.239 322.51 108.541 322.51V323.812C108.429 323.798 108.331 323.798 108.233 323.798C106.791 323.798 105.895 324.68 105.895 326.304V330H104.551V322.58H105.839V323.826ZM110.589 321.152C110.071 321.152 109.679 320.774 109.679 320.284C109.679 319.794 110.071 319.402 110.589 319.402C111.107 319.402 111.499 319.78 111.499 320.256C111.499 320.76 111.121 321.152 110.589 321.152ZM109.917 330V322.58H111.261V330H109.917ZM117.481 322.51C119.651 322.51 121.233 324.022 121.233 326.29C121.233 328.572 119.651 330.084 117.481 330.084C116.431 330.084 115.507 329.678 114.891 328.88V332.716H113.547V322.58H114.835V323.756C115.437 322.93 116.389 322.51 117.481 322.51ZM117.369 328.908C118.797 328.908 119.875 327.872 119.875 326.29C119.875 324.722 118.797 323.686 117.369 323.686C115.955 323.686 114.877 324.722 114.877 326.29C114.877 327.872 115.955 328.908 117.369 328.908ZM126.562 328.6L126.982 329.566C126.576 329.916 125.96 330.084 125.358 330.084C123.86 330.084 123.006 329.258 123.006 327.76V323.686H121.746V322.58H123.006V320.956H124.35V322.58H126.478V323.686H124.35V327.704C124.35 328.502 124.77 328.95 125.512 328.95C125.904 328.95 126.282 328.824 126.562 328.6ZM128.999 321.152C128.481 321.152 128.089 320.774 128.089 320.284C128.089 319.794 128.481 319.402 128.999 319.402C129.517 319.402 129.909 319.78 129.909 320.256C129.909 320.76 129.531 321.152 128.999 321.152ZM128.327 330V322.58H129.671V330H128.327ZM135.135 330.084C132.909 330.084 131.271 328.502 131.271 326.29C131.271 324.078 132.909 322.51 135.135 322.51C137.361 322.51 138.985 324.078 138.985 326.29C138.985 328.502 137.361 330.084 135.135 330.084ZM135.135 328.908C136.563 328.908 137.627 327.872 137.627 326.29C137.627 324.708 136.563 323.686 135.135 323.686C133.707 323.686 132.629 324.708 132.629 326.29C132.629 327.872 133.707 328.908 135.135 328.908ZM144.526 322.51C146.332 322.51 147.606 323.546 147.606 325.73V330H146.262V325.884C146.262 324.428 145.534 323.714 144.26 323.714C142.832 323.714 141.908 324.568 141.908 326.178V330H140.564V322.58H141.852V323.7C142.398 322.944 143.35 322.51 144.526 322.51Z" fill="#10162D"/>
<path d="M41.46 375.956H46.356V377H40.26V368.6H46.188V369.644H41.46V372.224H45.672V373.244H41.46V375.956ZM51.2871 370.58C52.8351 370.58 53.9271 371.468 53.9271 373.34V377H52.7751V373.472C52.7751 372.224 52.1511 371.612 51.0591 371.612C49.8351 371.612 49.0431 372.344 49.0431 373.724V377H47.8911V370.64H48.9951V371.6C49.4631 370.952 50.2791 370.58 51.2871 370.58ZM59.035 375.8L59.395 376.628C59.047 376.928 58.519 377.072 58.003 377.072C56.719 377.072 55.987 376.364 55.987 375.08V371.588H54.907V370.64H55.987V369.248H57.139V370.64H58.963V371.588H57.139V375.032C57.139 375.716 57.499 376.1 58.135 376.1C58.471 376.1 58.795 375.992 59.035 375.8ZM66.0848 373.856C66.0848 373.952 66.0728 374.096 66.0608 374.204H60.9008C61.0448 375.32 61.9448 376.064 63.2048 376.064C63.9488 376.064 64.5728 375.812 65.0408 375.296L65.6768 376.04C65.1008 376.712 64.2248 377.072 63.1688 377.072C61.1168 377.072 59.7488 375.716 59.7488 373.82C59.7488 371.936 61.1048 370.58 62.9408 370.58C64.7768 370.58 66.0848 371.9 66.0848 373.856ZM62.9408 371.552C61.8368 371.552 61.0208 372.296 60.9008 373.376H64.9808C64.8608 372.308 64.0568 371.552 62.9408 371.552ZM68.5485 371.708C68.9565 370.964 69.7485 370.58 70.8645 370.58V371.696C70.7685 371.684 70.6845 371.684 70.6005 371.684C69.3645 371.684 68.5965 372.44 68.5965 373.832V377H67.4445V370.64H68.5485V371.708ZM81.301 368.6H82.501V377H81.301V373.256H76.477V377H75.277V368.6H76.477V372.212H81.301V368.6ZM90.3553 373.856C90.3553 373.952 90.3433 374.096 90.3313 374.204H85.1713C85.3153 375.32 86.2153 376.064 87.4753 376.064C88.2193 376.064 88.8433 375.812 89.3113 375.296L89.9473 376.04C89.3713 376.712 88.4953 377.072 87.4393 377.072C85.3873 377.072 84.0193 375.716 84.0193 373.82C84.0193 371.936 85.3753 370.58 87.2113 370.58C89.0473 370.58 90.3553 371.9 90.3553 373.856ZM87.2113 371.552C86.1073 371.552 85.2913 372.296 85.1713 373.376H89.2513C89.1313 372.308 88.3273 371.552 87.2113 371.552ZM92.819 371.708C93.227 370.964 94.019 370.58 95.135 370.58V371.696C95.039 371.684 94.955 371.684 94.871 371.684C93.635 371.684 92.867 372.44 92.867 373.832V377H91.715V370.64H92.819V371.708ZM102.004 373.856C102.004 373.952 101.992 374.096 101.98 374.204H96.8202C96.9642 375.32 97.8642 376.064 99.1242 376.064C99.8682 376.064 100.492 375.812 100.96 375.296L101.596 376.04C101.02 376.712 100.144 377.072 99.0882 377.072C97.0362 377.072 95.6682 375.716 95.6682 373.82C95.6682 371.936 97.0242 370.58 98.8602 370.58C100.696 370.58 102.004 371.9 102.004 373.856ZM98.8602 371.552C97.7562 371.552 96.9402 372.296 96.8202 373.376H100.9C100.78 372.308 99.9762 371.552 98.8602 371.552Z" fill="#848FAC"/>
<rect x="19.75" y="347.75" width="534.5" height="103.5" rx="7.25" stroke="#DFE8F6" stroke-width="1.5"/>
<g filter="url(#filter0_d_491_1246)">
<rect x="19" y="481" width="535" height="41" rx="8" fill="white" shape-rendering="crispEdges"/>
<rect width="536.217" height="41" rx="8" transform="matrix(1 0 0 -1 19 522)" fill="#32CCBC"/>
<path d="M265.096 496.996C265.565 496.996 265.933 497.049 266.2 497.156C266.477 497.252 266.76 497.396 267.048 497.588C267.283 497.737 267.464 497.812 267.592 497.812C267.688 497.812 267.763 497.759 267.816 497.652C267.869 497.535 267.912 497.353 267.944 497.108H268.312C268.259 497.727 268.232 498.815 268.232 500.372H267.864C267.8 499.508 267.549 498.783 267.112 498.196C266.685 497.599 266.061 497.3 265.24 497.3C264.664 497.3 264.195 497.476 263.832 497.828C263.469 498.169 263.288 498.612 263.288 499.156C263.288 499.561 263.379 499.913 263.56 500.212C263.752 500.511 263.992 500.767 264.28 500.98C264.568 501.193 264.979 501.465 265.512 501.796L265.976 502.084C266.648 502.5 267.176 502.868 267.56 503.188C267.955 503.497 268.269 503.855 268.504 504.26C268.739 504.665 268.856 505.14 268.856 505.684C268.856 506.655 268.536 507.407 267.896 507.94C267.256 508.463 266.445 508.724 265.464 508.724C264.952 508.724 264.531 508.671 264.2 508.564C263.88 508.457 263.571 508.313 263.272 508.132C263.037 507.983 262.856 507.908 262.728 507.908C262.632 507.908 262.557 507.967 262.504 508.084C262.451 508.191 262.408 508.367 262.376 508.612H262.008C262.051 508.025 262.072 506.745 262.072 504.772H262.44C262.515 505.849 262.781 506.724 263.24 507.396C263.699 508.068 264.403 508.404 265.352 508.404C265.928 508.404 266.419 508.228 266.824 507.876C267.229 507.513 267.432 506.98 267.432 506.276C267.432 505.679 267.229 505.172 266.824 504.756C266.429 504.34 265.8 503.871 264.936 503.348C264.307 502.964 263.795 502.623 263.4 502.324C263.016 502.025 262.701 501.668 262.456 501.252C262.211 500.825 262.088 500.329 262.088 499.764C262.088 498.868 262.376 498.185 262.952 497.716C263.528 497.236 264.243 496.996 265.096 496.996ZM277.369 506.772C277.369 507.263 277.459 507.62 277.641 507.844C277.822 508.068 278.137 508.18 278.585 508.18V508.516C278.254 508.484 277.923 508.468 277.593 508.468C276.921 508.468 276.366 508.543 275.929 508.692V506.804C275.673 507.465 275.31 507.951 274.841 508.26C274.371 508.569 273.859 508.724 273.305 508.724C272.579 508.724 272.025 508.521 271.641 508.116C271.449 507.903 271.31 507.631 271.225 507.3C271.15 506.969 271.113 506.543 271.113 506.02V502.004C271.113 501.513 271.022 501.156 270.841 500.932C270.659 500.708 270.345 500.596 269.897 500.596V500.26C270.227 500.292 270.558 500.308 270.889 500.308C271.561 500.308 272.115 500.233 272.553 500.084V506.372C272.553 506.777 272.574 507.108 272.617 507.364C272.67 507.609 272.782 507.812 272.953 507.972C273.134 508.132 273.406 508.212 273.769 508.212C274.174 508.212 274.542 508.084 274.873 507.828C275.203 507.572 275.459 507.225 275.641 506.788C275.833 506.34 275.929 505.849 275.929 505.316V502.004C275.929 501.513 275.838 501.156 275.657 500.932C275.475 500.708 275.161 500.596 274.713 500.596V500.26C275.043 500.292 275.374 500.308 275.705 500.308C276.377 500.308 276.931 500.233 277.369 500.084V506.772ZM284.154 500.036C285.06 500.036 285.791 500.409 286.346 501.156C286.911 501.903 287.194 502.98 287.194 504.388C287.194 505.316 287.034 506.105 286.714 506.756C286.394 507.407 285.962 507.897 285.418 508.228C284.884 508.559 284.287 508.724 283.626 508.724C283.231 508.724 282.847 508.644 282.474 508.484C282.111 508.324 281.791 508.095 281.514 507.796L280.378 508.756L280.106 508.644C280.18 508.377 280.218 508.068 280.218 507.716V497.892C280.218 497.401 280.127 497.044 279.946 496.82C279.764 496.596 279.45 496.484 279.002 496.484V496.148C279.343 496.18 279.674 496.196 279.993 496.196C280.666 496.196 281.22 496.121 281.658 495.972V501.748C281.892 501.204 282.228 500.783 282.666 500.484C283.114 500.185 283.61 500.036 284.154 500.036ZM283.498 508.356C284.212 508.356 284.746 508.036 285.098 507.396C285.46 506.745 285.642 505.743 285.642 504.388C285.642 503.087 285.482 502.116 285.162 501.476C284.842 500.836 284.351 500.516 283.69 500.516C283.242 500.516 282.831 500.692 282.458 501.044C282.084 501.385 281.818 501.871 281.658 502.5V507.572C281.903 507.828 282.186 508.025 282.506 508.164C282.826 508.292 283.156 508.356 283.498 508.356ZM300.705 507.012C300.705 507.449 300.796 507.753 300.977 507.924C301.158 508.084 301.473 508.164 301.921 508.164V508.5C300.94 508.457 300.3 508.436 300.001 508.436C299.702 508.436 299.105 508.457 298.209 508.5V508.164C298.604 508.164 298.876 508.084 299.025 507.924C299.185 507.753 299.265 507.449 299.265 507.012V502.388C299.265 501.983 299.238 501.657 299.185 501.412C299.142 501.156 299.03 500.948 298.849 500.788C298.678 500.628 298.412 500.548 298.049 500.548C297.644 500.548 297.276 500.676 296.945 500.932C296.614 501.188 296.353 501.54 296.161 501.988C295.98 502.425 295.889 502.911 295.889 503.444V507.012C295.889 507.449 295.98 507.753 296.161 507.924C296.342 508.084 296.657 508.164 297.105 508.164V508.5C296.124 508.457 295.484 508.436 295.185 508.436C294.886 508.436 294.289 508.457 293.393 508.5V508.164C293.788 508.164 294.06 508.084 294.209 507.924C294.369 507.753 294.449 507.449 294.449 507.012V502.388C294.449 501.983 294.422 501.657 294.369 501.412C294.326 501.156 294.214 500.948 294.033 500.788C293.862 500.628 293.596 500.548 293.233 500.548C292.828 500.548 292.46 500.676 292.129 500.932C291.798 501.188 291.537 501.54 291.345 501.988C291.164 502.436 291.073 502.927 291.073 503.46V507.012C291.073 507.449 291.148 507.753 291.297 507.924C291.457 508.084 291.734 508.164 292.129 508.164V508.5C291.233 508.457 290.636 508.436 290.337 508.436C290.038 508.436 289.398 508.457 288.417 508.5V508.164C288.865 508.164 289.18 508.084 289.361 507.924C289.542 507.753 289.633 507.449 289.633 507.012V502.004C289.633 501.513 289.542 501.156 289.361 500.932C289.18 500.708 288.865 500.596 288.417 500.596V500.26C288.758 500.292 289.089 500.308 289.409 500.308C290.081 500.308 290.636 500.233 291.073 500.084V501.972C291.329 501.311 291.692 500.825 292.161 500.516C292.63 500.196 293.142 500.036 293.697 500.036C294.422 500.036 294.977 500.239 295.361 500.644C295.628 500.921 295.793 501.348 295.857 501.924C296.124 501.252 296.492 500.772 296.961 500.484C297.43 500.185 297.948 500.036 298.513 500.036C299.238 500.036 299.793 500.239 300.177 500.644C300.369 500.857 300.502 501.129 300.577 501.46C300.662 501.791 300.705 502.217 300.705 502.74V507.012ZM304.444 496.26C304.722 496.26 304.962 496.361 305.164 496.564C305.367 496.767 305.468 497.007 305.468 497.284C305.468 497.561 305.367 497.801 305.164 498.004C304.962 498.207 304.722 498.308 304.444 498.308C304.167 498.308 303.927 498.207 303.724 498.004C303.522 497.801 303.42 497.561 303.42 497.284C303.42 497.007 303.522 496.767 303.724 496.564C303.927 496.361 304.167 496.26 304.444 496.26ZM305.276 507.012C305.276 507.449 305.367 507.753 305.548 507.924C305.73 508.084 306.044 508.164 306.492 508.164V508.5C305.511 508.457 304.866 508.436 304.556 508.436C304.247 508.436 303.602 508.457 302.62 508.5V508.164C303.068 508.164 303.383 508.084 303.564 507.924C303.746 507.753 303.836 507.449 303.836 507.012V502.004C303.836 501.513 303.746 501.156 303.564 500.932C303.383 500.708 303.068 500.596 302.62 500.596V500.26C302.962 500.292 303.292 500.308 303.612 500.308C304.284 500.308 304.839 500.233 305.276 500.084V507.012ZM309.884 500.276H312.252V500.596H309.884V506.788C309.884 507.268 309.969 507.615 310.14 507.828C310.321 508.041 310.577 508.148 310.908 508.148C311.238 508.148 311.521 508.015 311.756 507.748C311.99 507.481 312.188 507.044 312.348 506.436L312.668 506.516C312.401 507.988 311.708 508.724 310.588 508.724C310.225 508.724 309.926 508.681 309.692 508.596C309.457 508.511 309.249 508.377 309.068 508.196C308.833 507.961 308.668 507.673 308.572 507.332C308.486 506.991 308.444 506.532 308.444 505.956V500.596H306.908V500.276H308.444V497.828C309.041 497.807 309.521 497.732 309.884 497.604V500.276Z" fill="white"/>
<rect x="19.5" y="481.5" width="534" height="40" rx="7.5" stroke="#32CCBC" shape-rendering="crispEdges"/>
</g>
<defs>
<filter id="filter0_d_491_1246" x="4" y="470" width="566.217" height="71" filterUnits="userSpaceOnUse" color-interpolation-filters="sRGB">
<feFlood flood-opacity="0" result="BackgroundImageFix"/>
<feColorMatrix in="SourceAlpha" type="matrix" values="0 0 0 0 0 0 0 0 0 0 0 0 0 0 0 0 0 0 127 0" result="hardAlpha"/>
<feOffset dy="4"/>
<feGaussianBlur stdDeviation="7.5"/>
<feComposite in2="hardAlpha" operator="out"/>
<feColorMatrix type="matrix" values="0 0 0 0 0 0 0 0 0 0 0 0 0 0 0 0 0 0 0.25 0"/>
<feBlend mode="normal" in2="BackgroundImageFix" result="effect1_dropShadow_491_1246"/>
<feBlend mode="normal" in="SourceGraphic" in2="effect1_dropShadow_491_1246" result="shape"/>
</filter>
</defs>
</svg>
