<svg width="43" height="43" viewBox="0 0 43 43" fill="none" xmlns="http://www.w3.org/2000/svg">
<rect width="43" height="43" rx="10" fill="url(#paint0_linear_491_1796)"/>
<path d="M25.979 30.4583L25.7103 29.1145C25.5311 29.0399 25.363 28.9613 25.2059 28.8789C25.0488 28.7965 24.8885 28.6959 24.7248 28.577L23.4259 28.9801L22.53 27.4572L23.5603 26.5614C23.5304 26.3822 23.5155 26.1881 23.5155 25.9791C23.5155 25.7701 23.5304 25.576 23.5603 25.3968L22.53 24.501L23.4259 22.978L24.7248 23.3812C24.8891 23.2617 25.0497 23.1611 25.2068 23.0793C25.3639 22.9975 25.5317 22.9189 25.7103 22.8437L25.979 21.4999H27.7707L28.0394 22.8437C28.2186 22.9183 28.3867 22.9969 28.5438 23.0793C28.7008 23.1617 28.8612 23.2623 29.0248 23.3812L30.3238 22.978L31.2196 24.501L30.1894 25.3968C30.2193 25.576 30.2342 25.7701 30.2342 25.9791C30.2342 26.1881 30.2193 26.3822 30.1894 26.5614L31.2196 27.4572L30.3238 28.9801L29.0248 28.577C28.8606 28.6964 28.7003 28.7974 28.5438 28.8798C28.3873 28.9622 28.2192 29.0404 28.0394 29.1145L27.7707 30.4583H25.979ZM26.8748 27.7708C27.3675 27.7708 27.7895 27.5952 28.1407 27.244C28.4918 26.8928 28.6671 26.4712 28.6665 25.9791C28.6665 25.4864 28.4909 25.0644 28.1398 24.7133C27.7886 24.3621 27.367 24.1868 26.8748 24.1874C26.3821 24.1874 25.9602 24.363 25.609 24.7142C25.2579 25.0653 25.0826 25.487 25.0832 25.9791C25.0832 26.4718 25.2588 26.8937 25.6099 27.2449C25.9611 27.5961 26.3827 27.7714 26.8748 27.7708ZM14.3332 28.6666C13.8405 28.6666 13.4185 28.491 13.0674 28.1398C12.7162 27.7887 12.5409 27.367 12.5415 26.8749V16.1249C12.5415 15.6322 12.7171 15.2103 13.0683 14.8591C13.4194 14.5079 13.8411 14.3327 14.3332 14.3333H19.7082L21.4998 16.1249H28.6665C29.1592 16.1249 29.5812 16.3005 29.9323 16.6517C30.2835 17.0028 30.4588 17.4245 30.4582 17.9166V20.828C29.9356 20.4548 29.3682 20.1747 28.7561 19.9878C28.1439 19.8008 27.5169 19.7077 26.8748 19.7083C25.128 19.7083 23.646 20.3168 22.4288 21.534C21.2117 22.7511 20.6034 24.2328 20.604 25.9791C20.604 26.4569 20.6527 26.9197 20.75 27.3676C20.8474 27.8155 21.0003 28.2485 21.2087 28.6666H14.3332Z" fill="white"/>
<defs>
<linearGradient id="paint0_linear_491_1796" x1="0" y1="0" x2="46.4" y2="4.05042" gradientUnits="userSpaceOnUse">
<stop stop-color="#F55757"/>
<stop offset="1" stop-color="#FFB18F"/>
</linearGradient>
</defs>
</svg>
