<svg width="48" height="48" viewBox="0 0 48 48" fill="none" xmlns="http://www.w3.org/2000/svg">
<rect width="48" height="48" rx="20" fill="url(#paint0_linear_491_1524)"/>
<g clip-path="url(#clip0_491_1524)">
<path d="M32.5659 18.6699H15.4344C13.0199 18.6699 11.0557 20.6341 11.0557 23.0486V32.5657C11.0557 34.9802 13.0199 36.9445 15.4344 36.9445H32.5659C34.9804 36.9445 36.9447 34.9802 36.9447 32.5657V23.0486C36.9447 20.6341 34.9804 18.6699 32.5659 18.6699ZM24.0002 33.8987C20.6413 33.8987 17.9086 31.1661 17.9086 27.8072C17.9086 24.4483 20.6413 21.7156 24.0002 21.7156C27.359 21.7156 30.0917 24.4483 30.0917 27.8071C30.0917 31.166 27.359 33.8987 24.0002 33.8987Z" fill="white"/>
<path d="M24.0003 23.2385C21.4811 23.2385 19.4316 25.288 19.4316 27.8072C19.4316 30.3263 21.4811 32.3758 24.0003 32.3758C26.5194 32.3758 28.5689 30.3264 28.5689 27.8072C28.5689 25.2881 26.5194 23.2385 24.0003 23.2385ZM26.5946 26.5181L24.0057 29.107C23.7083 29.4044 23.2262 29.4043 22.9289 29.107L21.406 27.5841C21.1086 27.2868 21.1086 26.8046 21.406 26.5073C21.7033 26.21 22.1855 26.21 22.4828 26.5073L23.4673 27.4918L25.5178 25.4413C25.8151 25.1439 26.2973 25.1439 26.5946 25.4413C26.892 25.7386 26.892 26.2208 26.5946 26.5181Z" fill="white"/>
<path d="M30.2814 13.3398C30.8661 13.3398 31.4311 13.4258 31.9648 13.5849C31.2663 12.0924 29.7508 11.0555 27.997 11.0555H20.0029C18.2491 11.0555 16.7337 12.0924 16.0352 13.5849C16.5689 13.4258 17.1338 13.3398 17.7186 13.3398H30.2814Z" fill="white"/>
<path d="M32.5658 17.147C33.1505 17.147 33.7154 17.2329 34.2491 17.392C33.5506 15.8995 32.0352 14.8627 30.2814 14.8627H17.7187C15.9649 14.8627 14.4495 15.8995 13.751 17.392C14.2847 17.2329 14.8496 17.147 15.4343 17.147H32.5658Z" fill="white"/>
</g>
<defs>
<linearGradient id="paint0_linear_491_1524" x1="0" y1="0" x2="48" y2="48" gradientUnits="userSpaceOnUse">
<stop stop-color="#09C883"/>
<stop offset="1" stop-color="#54FABE"/>
</linearGradient>
<clipPath id="clip0_491_1524">
<rect width="26" height="26" fill="white" transform="translate(11 11)"/>
</clipPath>
</defs>
</svg>
