<svg width="130" height="130" viewBox="0 0 130 130" fill="none" xmlns="http://www.w3.org/2000/svg">
<circle cx="65" cy="65" r="61" fill="#FFD15B" stroke="white" stroke-width="8"/>
<path d="M65 35C48.47 35 35 48.47 35 65C35 81.53 48.47 95 65 95C81.53 95 95 81.53 95 65C95 48.47 81.53 35 65 35ZM79.34 58.1L62.33 75.11C61.9081 75.5313 61.3363 75.768 60.74 75.768C60.1437 75.768 59.5719 75.5313 59.15 75.11L50.66 66.62C50.2416 66.1966 50.0069 65.6253 50.0069 65.03C50.0069 64.4347 50.2416 63.8634 50.66 63.44C51.53 62.57 52.97 62.57 53.84 63.44L60.74 70.34L76.16 54.92C77.03 54.05 78.47 54.05 79.34 54.92C80.21 55.79 80.21 57.2 79.34 58.1Z" fill="white"/>
</svg>
