<svg width="48" height="48" viewBox="0 0 48 48" fill="none" xmlns="http://www.w3.org/2000/svg">
<rect width="48" height="48" rx="20" fill="url(#paint0_linear_491_1508)"/>
<path d="M29.5 30.5V27.728C28.8901 27.6722 28.312 27.4305 27.8438 27.0356C27.3757 26.6408 27.0399 26.1118 26.882 25.52L26.5 25.9V28.5C26.5008 29.1628 26.7644 29.7982 27.2331 30.2669C27.7018 30.7356 28.3372 30.9992 29 31C29.1326 31 29.2598 30.9473 29.3536 30.8536C29.4473 30.7598 29.5 30.6326 29.5 30.5Z" fill="white"/>
<path d="M20.0057 23.943C20.0997 23.8959 20.2061 23.8795 20.3099 23.8963C20.4136 23.9131 20.5095 23.9621 20.5837 24.0365L21.5002 24.953V24.5C21.4995 24.1717 21.5635 23.8465 21.6884 23.5429C21.8134 23.2393 21.9969 22.9633 22.2286 22.7306C22.6964 22.2608 23.3317 21.996 23.9947 21.9945C24.6578 21.9931 25.2942 22.255 25.7641 22.7229C26.234 23.1907 26.4988 23.826 26.5002 24.489L26.9527 24.0365C27.0269 23.9615 27.1229 23.9118 27.227 23.8947C27.3312 23.8775 27.438 23.8937 27.5323 23.941C27.6267 23.9883 27.7036 24.0642 27.7522 24.1579C27.8008 24.2515 27.8185 24.3582 27.8027 24.4625C27.7439 24.8779 27.8173 25.3013 28.0124 25.6727C28.2074 26.0442 28.5144 26.3448 28.8897 26.5322C29.2651 26.7196 29.6899 26.7842 30.104 26.7168C30.5181 26.6495 30.9006 26.4536 31.1972 26.157C31.4939 25.8603 31.6897 25.4779 31.7571 25.0638C31.8244 24.6497 31.7598 24.2249 31.5724 23.8495C31.3851 23.4741 31.0844 23.1672 30.7129 22.9721C30.3415 22.777 29.9181 22.7037 29.5027 22.7625C29.3984 22.7782 29.2918 22.7605 29.1981 22.712C29.1044 22.6634 29.0285 22.5864 28.9813 22.4921C28.934 22.3978 28.9178 22.2909 28.9349 22.1868C28.9521 22.0827 29.0017 21.9867 29.0767 21.9125L32.2582 18.726L30.0172 16.4855C29.8104 16.9186 29.5027 17.2957 29.1199 17.5853C28.7371 17.8748 28.2905 18.0683 27.8174 18.1494C27.3444 18.2306 26.8588 18.1971 26.4014 18.0517C25.944 17.9063 25.5282 17.6533 25.1888 17.3139C24.8494 16.9746 24.5964 16.5587 24.4511 16.1013C24.3057 15.6439 24.2722 15.1583 24.3533 14.6853C24.4345 14.2123 24.628 13.7656 24.9175 13.3828C25.207 13.0001 25.5842 12.6923 26.0172 12.4855L23.7702 10.247L20.5837 13.4285C20.5096 13.5035 20.4135 13.5532 20.3094 13.5703C20.2053 13.5875 20.0985 13.5713 20.0041 13.524C19.9098 13.4767 19.8328 13.4008 19.7843 13.3071C19.7357 13.2135 19.718 13.1068 19.7337 13.0025C19.7774 12.6958 19.7491 12.3831 19.6513 12.0891C19.5534 11.7951 19.3885 11.5279 19.1697 11.3085C18.7885 10.9454 18.2822 10.7428 17.7557 10.7428C17.2292 10.7428 16.7229 10.9454 16.3417 11.3085C16.0461 11.6055 15.8513 11.9878 15.7846 12.4014C15.718 12.8151 15.783 13.2393 15.9704 13.614C16.1578 13.9888 16.4581 14.2952 16.8291 14.4901C17.2 14.6849 17.6228 14.7584 18.0377 14.7C18.1421 14.6843 18.2487 14.702 18.3424 14.7506C18.436 14.7991 18.5119 14.8761 18.5592 14.9704C18.6065 15.0647 18.6227 15.1716 18.6056 15.2757C18.5884 15.3798 18.5388 15.4758 18.4637 15.55L15.2817 18.73L18.4642 21.9165C18.5393 21.9907 18.589 22.0868 18.6062 22.191C18.6233 22.2951 18.6071 22.4021 18.5597 22.4964C18.5124 22.5908 18.4364 22.6677 18.3426 22.7162C18.2488 22.7648 18.1421 22.7824 18.0377 22.7665C17.6223 22.7077 17.199 22.781 16.8275 22.9761C16.4561 23.1712 16.1554 23.4781 15.968 23.8535C15.7807 24.2289 15.7161 24.6537 15.7834 25.0678C15.8507 25.4819 16.0466 25.8643 16.3433 26.161C16.6399 26.4576 17.0224 26.6535 17.4365 26.7208C17.8506 26.7882 18.2754 26.7236 18.6507 26.5362C19.0261 26.3488 19.333 26.0482 19.5281 25.6767C19.7232 25.3053 19.7965 24.8819 19.7377 24.4665C19.7214 24.3621 19.7385 24.2552 19.7866 24.1612C19.8348 24.0671 19.9115 23.9908 20.0057 23.943Z" fill="white"/>
<path d="M25.6581 37.0655L26.1581 36.0655C26.4 35.5793 26.5259 35.0436 26.5259 34.5005C26.5259 33.9574 26.4 33.4217 26.1581 32.9355L25.9751 32.5685C25.6635 31.9432 25.5009 31.2542 25.5001 30.5555V24.5C25.5001 24.1022 25.342 23.7206 25.0607 23.4393C24.7794 23.158 24.3979 23 24.0001 23C23.6023 23 23.2207 23.158 22.9394 23.4393C22.6581 23.7206 22.5001 24.1022 22.5001 24.5V31.5C22.5001 31.6326 22.4474 31.7598 22.3536 31.8536C22.2599 31.9473 22.1327 32 22.0001 32C21.8675 32 21.7403 31.9473 21.6465 31.8536C21.5528 31.7598 21.5001 31.6326 21.5001 31.5V26.367L20.6531 25.5205C20.4826 26.158 20.1063 26.7214 19.5827 27.123C19.0591 27.5247 18.4175 27.7421 17.7576 27.7415C17.7046 27.7415 17.6531 27.7365 17.6006 27.734L16.3776 31.254C16.2766 31.4701 16.228 31.7069 16.2356 31.9453C16.2433 32.1836 16.307 32.4168 16.4216 32.626C16.4306 32.6422 16.4386 32.6589 16.4456 32.676L18.2001 36.828C18.3965 37.1946 18.4996 37.6041 18.5001 38.02V38.5H25.5001V37.736C25.5003 37.5033 25.5544 37.2738 25.6581 37.0655Z" fill="white"/>
<path d="M38.5 19.5H35.5C35.3674 19.5 35.2402 19.4473 35.1464 19.3536C35.0527 19.2598 35 19.1326 35 19C35 18.8674 35.0527 18.7402 35.1464 18.6464C35.2402 18.5527 35.3674 18.5 35.5 18.5H38.5C38.6326 18.5 38.7598 18.5527 38.8536 18.6464C38.9473 18.7402 39 18.8674 39 19C39 19.1326 38.9473 19.2598 38.8536 19.3536C38.7598 19.4473 38.6326 19.5 38.5 19.5Z" fill="white"/>
<path d="M34.9595 13.75C34.8494 13.75 34.7424 13.7137 34.6551 13.6467C34.5678 13.5797 34.505 13.4857 34.4765 13.3794C34.448 13.2731 34.4554 13.1603 34.4975 13.0587C34.5396 12.957 34.6141 12.872 34.7095 12.817L37.3095 11.317C37.4242 11.2517 37.5602 11.2345 37.6876 11.2691C37.815 11.3037 37.9236 11.3873 37.9896 11.5016C38.0556 11.616 38.0737 11.7518 38.04 11.8794C38.0062 12.0071 37.9234 12.1162 37.8095 12.183L35.2095 13.683C35.1335 13.7271 35.0472 13.7502 34.9595 13.75Z" fill="white"/>
<path d="M37.557 26.75C37.4692 26.7502 37.3829 26.7271 37.307 26.683L34.707 25.183C34.6497 25.1504 34.5993 25.1068 34.5589 25.0547C34.5185 25.0026 34.4888 24.943 34.4716 24.8794C34.4543 24.8157 34.4498 24.7493 34.4583 24.6839C34.4668 24.6185 34.4881 24.5555 34.5211 24.4983C34.5541 24.4412 34.598 24.3912 34.6504 24.3512C34.7028 24.3111 34.7626 24.2818 34.8263 24.265C34.8901 24.2481 34.9565 24.244 35.0218 24.253C35.0872 24.2619 35.1501 24.2837 35.207 24.317L37.807 25.817C37.9023 25.872 37.9768 25.957 38.0189 26.0587C38.061 26.1604 38.0684 26.2731 38.0399 26.3794C38.0114 26.4857 37.9487 26.5797 37.8613 26.6467C37.774 26.7137 37.667 26.75 37.557 26.75Z" fill="white"/>
<path d="M12.5 19.5H9.5C9.36739 19.5 9.24021 19.4473 9.14645 19.3536C9.05268 19.2598 9 19.1326 9 19C9 18.8674 9.05268 18.7402 9.14645 18.6464C9.24021 18.5527 9.36739 18.5 9.5 18.5H12.5C12.6326 18.5 12.7598 18.5527 12.8536 18.6464C12.9473 18.7402 13 18.8674 13 19C13 19.1326 12.9473 19.2598 12.8536 19.3536C12.7598 19.4473 12.6326 19.5 12.5 19.5Z" fill="white"/>
<path d="M13.0405 13.75C12.9527 13.7502 12.8664 13.7271 12.7905 13.683L10.1905 12.183C10.0766 12.1162 9.99372 12.0071 9.95997 11.8794C9.92622 11.7518 9.94433 11.616 10.0104 11.5016C10.0764 11.3873 10.1849 11.3037 10.3124 11.2691C10.4398 11.2345 10.5757 11.2517 10.6905 11.317L13.2905 12.817C13.3858 12.872 13.4603 12.957 13.5024 13.0587C13.5445 13.1603 13.5519 13.2731 13.5234 13.3794C13.4949 13.4857 13.4322 13.5797 13.3449 13.6467C13.2575 13.7137 13.1506 13.75 13.0405 13.75Z" fill="white"/>
<path d="M10.4428 26.75C10.3328 26.75 10.2258 26.7137 10.1385 26.6467C10.0512 26.5797 9.9884 26.4857 9.95991 26.3794C9.93142 26.2731 9.93881 26.1604 9.98093 26.0587C10.023 25.957 10.0975 25.872 10.1928 25.817L12.7928 24.317C12.8497 24.2837 12.9127 24.2619 12.978 24.253C13.0433 24.244 13.1098 24.2481 13.1735 24.265C13.2373 24.2818 13.2971 24.3111 13.3494 24.3512C13.4018 24.3912 13.4458 24.4412 13.4787 24.4983C13.5117 24.5555 13.5331 24.6185 13.5416 24.6839C13.5501 24.7493 13.5455 24.8157 13.5283 24.8794C13.511 24.943 13.4813 25.0026 13.4409 25.0547C13.4005 25.1068 13.3502 25.1504 13.2928 25.183L10.6928 26.683C10.6169 26.7271 10.5306 26.7502 10.4428 26.75Z" fill="white"/>
<defs>
<linearGradient id="paint0_linear_491_1508" x1="0" y1="0" x2="51.7954" y2="4.52139" gradientUnits="userSpaceOnUse">
<stop stop-color="#F55757"/>
<stop offset="1" stop-color="#FFB18F"/>
</linearGradient>
</defs>
</svg>
